<?xml version="1.0" encoding="UTF-8"?>
<svg id="Calque_2" data-name="Calque 2" xmlns="http://www.w3.org/2000/svg" xmlns:xlink="http://www.w3.org/1999/xlink" viewBox="0 0 223.22 225.24">
  <defs>
    <style>
      .cls-1 {
        fill: none;
      }

      .cls-2 {
        clip-path: url(#clippath);
      }

      .cls-3 {
        fill: #010101;
      }

      .cls-4 {
        fill: #fff;
      }
    </style>
    <clipPath id="clippath">
      <circle class="cls-1" cx="111.61" cy="111.61" r="111.61"/>
    </clipPath>
  </defs>
  <g id="Calque_1-2" data-name="Calque 1">
    <circle class="cls-3" cx="111.61" cy="111.61" r="111.61"/>
    <g class="cls-2">
      <g>
        <path class="cls-4" d="M148.8,225.24h-2.72l-2.07-4.22-.27,.18,1.62,4.04h-10.69c-2.43-5.3-6.02-9.97-10.51-14.02s-3.23-4.46-3.77-6.79-1.44-1.17-2.25-1.53c-2.52-1.26-4.13-3.68-4.94-6.2l-.99-2.79c-.27-.81-.9-1.26-1.62-1.8-4.94-4.49-8.8-9.88-11.77-15.81-2.96-5.93-3.59-10.6-3.95-16.35l-.27-3.95c0-.72-.27-1.98,0-2.52,.63-.9,1.53,0,1.98,.18l2.61,.99,3.23,1.26,2.52,1.35,1.98,1.26,3.23,2.61,3.05,2.61,4.31,11.05,2.7,6.38,4.94,13.03,.54,2.87c1.08,2.43,.72,4.4-.81,6.47s-1.44,1.89-2.61,2.79c2.07,.18,5.84-3.27,5.93-5.07,.18-2.79-.36-5.57-1.26-8.18l-3.68-10.33-3.5-7.91-5.75-11.95c-4.33-17.59-6.35-24.62-6.35-24.62-1.44-5.21-4.04-9.52-7.01-14.02-2.96-4.49-1.17-3.41-1.35-4.94s.09-3.68,.27-5.39l.9-.99-2.34-1.08c-3.14-1.44-5.84-5.03-6.83-8.27-2.34-7.73-2.79-17.97-2.34-26.14l.27-5.03c.09-1.89,.27-3.59,1.17-5.39l1.53,2.16c1.26,1.89,2.52,3.86,4.22,5.3l3.86,3.23c5.48,4.58,11.41,8.89,13.75,15.99-.09-1.62-.54-3.05-.27-4.4l1.53-7.55c.45-2.25,.72-4.85,.72-7.19s.27-.72,.36-.63,.54,.45,.54,.54l1.35,4.31c1.08,4.94,1.53,9.79,1.89,14.82,.81,11.14-3.23,13.39-3.5,14.55s.36,1.26,.63,1.62c1.35,1.8,2.07,3.59,2.61,5.66s.72,4.67,.27,7.19c-1.44,8.53,.99,21.02,2.87,30.1,1.89,9.07,4.38,15.27,4.38,15.27,4.76,14.82,9.88,29.38,15.99,43.75m-32.77-106.64l-1.53,.99c-2.25,.81-4.49,.27-6.65-.36s-2.43-.63-3.41-1.44l-2.43-1.89c2.16,5.21,6.83,6.83,12.4,5.3l2.25-1.71c.18-.09,.36-.9,.18-.99s-.63,0-.81,0v.09Zm-.81,6.65l2.34-1.62,.99-.63c.27-.18,.81,.54,.99,.72l2.61-2.61,.63-3.32c-.9,0-1.35-.18-1.98-.72-.27,1.98-.54,3.86-1.62,5.84l-.18-4.67c-.36,0-1.53,.27-1.53,.63v1.98l-2.7,3.59-.54,.54c-.09,.09,.72,.18,.9,0l.09,.27Zm-2.25,6.02c1.53,1.26,3.5,.36,7.1,.9s1.35-.27,1.89-.81,1.62-1.53,1.89-2.34c-.27-1.44-.9-2.79-1.98-3.59s-2.87,1.71-3.68,3.86l-1.08-.54c-.36-.18-1.08,.18-1.44,.27-1.89,.18-3.77,.09-5.39,1.26l-.27,.72c0,.09,.63,.27,.72,.27l2.16-.18,.09,.18Zm-5.66,4.13c.09,.63,.99,.99,1.62,.99l6.92-.36h5.84c1.98-1.26,3.59-3.68,3.5-6.11l-2.52,3.05c-.27,.36-1.08,.99-1.53,.99-1.89-.27-4.04,0-6.02,.45l-5.3,1.17c-1.08,.27-1.44,.36-2.52,0v-.18Zm26.06,58.94c-1.09-4.54-1.98-7.91-2.96-11.86l-6.38-26.68-.18,.18,1.41,9.45,2.21,12.12c1.09,4.96,5.9,16.79,5.9,16.79Zm-11.97-1.58l1.53,.54c.72,.27,1.44,.81,1.98,1.44h.36c-1.08-1.71-2.34-2.61-4.04-2.96-.27-1.71-.54-3.41-1.35-4.76s-.72-1.35-1.08-2.25c-1.35-3.41-3.95-6.2-6.83-8.45l-3.77-3.05c-.63-.54-1.44-.99-2.34-1.44l7.73,8.09,4.76,5.57c.99,1.17,2.79,6.56,.99,7.73l-1.71,1.08c-1.62,.99-3.5,.63-5.3,.45,1.8,1.98,4.85,1.8,7.37,.9l1.71-2.96v.09Zm9.61,18.96c.9-1.35,0-1.62-.36-2.25l-1.71-2.34c-.45-.63-1.35-1.08-2.25-1.35,.18,.63,.54,.9,.99,1.35-.18,1.89,1.35,3.41,3.41,4.58h-.09Zm-6.83-.99l-1.71-1.35-2.07-1.44c1.08,2.7,3.14,5.21,5.03,3.86l-1.17-1.08h-.09Z"/>
        <path class="cls-4" d="M106.64,79.23l-5.12-4.58-5.84-4.58c-2.07-1.53-3.86-3.5-4.85-6.02s-.45-3.5-.18-5.12c.45-2.61,.72-5.12,1.53-7.55l3.68-11.41c.72-2.25,.18-4.67,2.7-6.47l2.16,1.62c2.34,2.25,3.95,5.03,5.66,7.82s2.96,5.3,4.31,8.18c2.96,6.2,4.22,12.94,4.49,19.86l-2.7,13.21c0,.72-.18,1.35-.72,1.98-1.53-2.7-2.87-4.85-5.21-6.92h.09Zm-4.85-39.71c-.63-1.26-1.44-3.5-3.41-3.68l1.8,4.4,1.26,.36,.27-1.08h.09Zm-4.76,4.76c1.26-1.98,1.8-3.77,.81-5.66,0,0-.81,5.66-.81,5.66Zm10.78,8.62c-.72-2.34-1.71-4.22-2.52-6.38l-2.52-5.21c-1.08,1.89-.09,3.5,.81,5.03l4.22,6.56h0Zm-9.07-5.48c.81,.9,.9,.99,1.44,1.26-.45-.99-.9-1.44-1.62-2.43-3.77,4.13-6.47,9.52-7.01,15.18,1.98-5.21,3.86-9.97,7.1-14.02h.09Zm12.85,19.77c-1.62-5.21-4.58-9.25-7.64-13.21-1.35-1.35-1.89-3.23-3.86-4.04,1.17,2.87,2.7,5.21,4.67,7.55s4.85,6.47,6.83,9.7Zm-5.75,4.04l-1.8-1.35c-.63-.45-.99-1.08-1.98-.99l2.25,2.34c1.8,1.53,3.23,2.96,4.76,4.94-.27-2.16-1.62-3.68-3.14-4.94h-.09Z"/>
      </g>
    </g>
  </g>
</svg>