<?xml version="1.0" encoding="UTF-8"?>
<svg id="Layer_1" data-name="Layer 1" xmlns="http://www.w3.org/2000/svg" viewBox="0 0 303.12 337.72">
  <defs>
    <style>
      .cls-1 {
        fill: #fff;
      }
    </style>
  </defs>
  <path class="cls-1" d="M229.7,364.33H6.39s0-361.13,0-361.13h333.49s0,361.13,0,361.13h-91.82s-7.14-16.41-7.14-16.41c-7.55-17.04-13.77-34.37-19.61-52.03l-3.67-11.1-12.88-42.78-12.12-43.46c-4.04-14.5-7.52-28.82-10.6-43.5-2.25-10.74-5.26-25.59-3.48-35.78.51-2.95.46-5.69-.33-8.53-.7-2.5-1.51-4.67-3.2-6.78-.35-.43-.91-1.41-.8-1.89.3-1.36,5.23-4.08,4.27-17.3-.43-6.01-1.07-11.72-2.35-17.63l-1.7-5.13c-.05-.16-.53-.57-.66-.68s-.43.61-.43.77c0,2.71-.35,5.8-.91,8.52l-1.87,9c-.35,1.67.16,3.38.33,5.28-2.89-8.48-10.15-13.58-16.85-19.04l-4.77-3.89c-2.12-1.73-3.62-4.08-5.21-6.3l-1.82-2.54c-1.14,2.06-1.32,4.1-1.46,6.36l-.36,6.03c-.58,9.69.04,21.91,2.86,31.13,1.17,3.84,4.47,8.1,8.35,9.85l2.88,1.3-1.13,1.13c-.2,2.07-.57,4.27-.35,6.44.19,1.81.58,4.36,1.6,5.89,3.58,5.38,6.81,10.49,8.57,16.68l7.48,26.31,16.35,63.11c5.45,21.04,11.25,41.71,17.7,62.57l7.07,14.21,4.31,9.4,4.51,12.35c1.14,3.12,1.81,6.41,1.56,9.74-.16,2.13-3.73,6.37-6.31,6.21,1.36-.97,2.22-2.03,3.15-3.27,1.81-2.42,2.32-4.8.98-7.71l-.65-3.41-6.1-15.53-3.36-7.57-5.26-13.11-3.75-3.06-3.97-3.06-2.47-1.48-3.07-1.6-4-1.54-3.22-1.17c-.6-.22-1.66-1.32-2.43-.24-.44.62-.13,2.15-.07,3l.32,4.75c.46,6.85,1.71,13.27,4.86,19.45,3.61,7.09,8.39,13.47,14.39,18.82.8.71,1.59,1.2,1.94,2.19l1.2,3.35c1.08,3,3.06,5.87,6.09,7.33.91.44,2.45.6,2.71,1.78.62,2.78,1.31,5.92,3.58,7.88,5.55,4.78,9.91,10.37,12.92,16.69ZM162.65,70.61c2.78,2.42,4.52,4.98,6.36,8.19.62-.75.83-1.54.89-2.37l3.27-15.67c-.26-8.26-1.89-16.19-5.46-23.62-1.64-3.41-3.26-6.57-5.33-9.72s-4.1-6.6-6.98-9.32l-2.67-1.87c-3.04,2.18-2.43,5.08-3.31,7.75l-4.48,13.56c-.97,2.94-1.31,5.92-1.82,8.99-.32,1.95-.54,4.27.19,6.08,1.19,2.95,3.44,5.28,5.92,7.15l7.2,5.41,6.23,5.43Z"/>
  <path d="M248.05,364.33h-4.35s-2.53-5.08-2.53-5.08l-.3.23,1.93,4.85h-13.09c-3.02-6.32-7.37-11.91-12.92-16.69-2.27-1.95-2.95-5.09-3.58-7.88-.26-1.18-1.8-1.34-2.71-1.78-3.03-1.47-5.01-4.34-6.09-7.33l-1.2-3.35c-.35-.98-1.14-1.47-1.94-2.19-6.01-5.34-10.78-11.72-14.39-18.82-3.15-6.18-4.4-12.6-4.86-19.45l-.32-4.75c-.06-.86-.37-2.38.07-3,.77-1.08,1.83.02,2.43.24l3.22,1.17,4,1.54,3.07,1.6,2.47,1.48,3.97,3.06,3.75,3.06,5.26,13.11,3.36,7.57,6.1,15.53.65,3.41c1.34,2.9.83,5.28-.98,7.71-.93,1.24-1.79,2.3-3.15,3.27,2.57.16,6.15-4.09,6.31-6.21.24-3.34-.42-6.62-1.56-9.74l-4.51-12.35-4.31-9.4-7.07-14.21c-6.46-20.86-12.25-41.53-17.7-62.57l-16.35-63.11-7.48-26.31c-1.76-6.2-4.99-11.31-8.57-16.68-1.02-1.53-1.41-4.08-1.6-5.89-.22-2.17.15-4.37.35-6.44l1.13-1.13-2.88-1.3c-3.88-1.75-7.17-6.01-8.35-9.85-2.82-9.22-3.45-21.43-2.86-31.13l.36-6.03c.14-2.26.32-4.3,1.46-6.36l1.82,2.54c1.59,2.22,3.09,4.57,5.21,6.3l4.77,3.89c6.7,5.46,13.95,10.56,16.85,19.04-.16-1.9-.67-3.61-.33-5.28l1.87-9c.56-2.72.91-5.81.91-8.52,0-.16.3-.87.43-.77s.61.52.66.68l1.7,5.13c1.28,5.91,1.92,11.62,2.35,17.63.95,13.22-3.98,15.93-4.27,17.3-.11.48.46,1.46.8,1.89,1.69,2.12,2.5,4.28,3.2,6.78.79,2.83.84,5.57.33,8.53-1.77,10.19,1.23,25.04,3.48,35.78,3.08,14.68,6.56,29,10.6,43.5l12.12,43.46,12.88,42.78,3.67,11.1c5.84,17.66,12.06,34.99,19.61,52.03l7.14,16.41ZM166.08,98.68l-1.92,1.22c-2.75.93-5.48.3-8.1-.46-1.54-.44-2.98-.78-4.18-1.71l-2.94-2.28c2.63,6.19,8.34,8.11,15.18,6.36l2.7-2.03c.19-.14.49-1.07.27-1.14s-.79-.09-1,.04ZM165.08,106.57l2.9-1.89,1.23-.72c.28-.16.96.59,1.24.89l3.24-3.05.82-3.96c-1.13-.03-1.61-.2-2.37-.81-.33,2.35-.68,4.65-1.99,7l-.23-5.55c-.43-.01-1.88.31-1.87.79l.05,2.3-3.38,4.24-.71.69c-.11.11.89.18,1.07.06ZM162.35,113.75c1.82,1.48,4.32.39,8.69,1.12.95.16,1.62-.34,2.28-1,.73-.73,2.02-1.84,2.36-2.74-.31-1.72-1.08-3.28-2.39-4.27-1.05-.79-3.57,2.04-4.46,4.6l-1.31-.61c-.4-.18-1.35.21-1.79.32-2.35.16-4.65.15-6.59,1.53l-.37.9c-.06.15.74.32.92.31l2.67-.18ZM155.39,118.73c.14.73,1.23,1.2,1.98,1.16l8.43-.44,7.2-.16c2.37-1.38,4.42-4.2,4.32-7.09l-3.13,3.59c-.35.41-1.32,1.22-1.91,1.14-2.35-.3-4.92-.02-7.37.51l-6.45,1.38c-1.27.27-1.79.47-3.07-.08ZM209.6,276.07c-.58-5.16-2.23-9.47-3.45-14.24l-6.42-24.99-13.22-50.99-10.81-42.87-.26.19,2.43,11.23,3.18,14.03c4.42,19.51,9.49,38.68,14.59,58.11,4.39,16.72,8.82,33.28,13.95,49.53ZM207.43,309.77l1.83.68c.91.34,1.72.97,2.37,1.72l.44-.16c-1.35-1.89-2.81-2.96-4.91-3.33-.28-2.02-.61-4.04-1.7-5.65-.57-.85-.87-1.64-1.28-2.63-1.7-4.04-4.88-7.38-8.33-10.08l-4.57-3.59c-.78-.61-1.79-1.22-2.91-1.73l9.45,9.67,5.84,6.67c1.2,1.37,3.4,7.81,1.23,9.18l-2.06,1.29c-1.97,1.23-4.28.77-6.53.5,2.18,2.37,5.99,2.16,9.01,1.05l2.12-3.56ZM219.2,332.4c1.05-1.6.07-1.92-.49-2.67l-2.11-2.77c-.56-.74-1.65-1.24-2.79-1.55.27.7.66,1.11,1.24,1.56-.24,2.23,1.7,4.09,4.15,5.43ZM210.82,331.16l-2.1-1.59-2.57-1.72c1.27,3.15,3.84,6.25,6.12,4.55l-1.46-1.24Z"/>
  <path d="M162.65,70.61l-6.23-5.43-7.2-5.41c-2.49-1.87-4.74-4.2-5.92-7.15-.73-1.81-.51-4.14-.19-6.08.51-3.07.85-6.05,1.82-8.99l4.48-13.56c.88-2.67.27-5.57,3.31-7.75l2.67,1.87c2.87,2.71,4.82,6.04,6.98,9.32s3.68,6.31,5.33,9.72c3.58,7.42,5.2,15.36,5.46,23.62l-3.27,15.67c-.06.83-.27,1.63-.89,2.37-1.84-3.21-3.58-5.77-6.36-8.19ZM156.71,23.34c-.77-1.48-1.74-4.13-4.13-4.44l2.22,5.28,1.52.44.38-1.29ZM150.87,29.01c1.55-2.31,2.25-4.53,1-6.71l-1,6.71ZM164.13,39.19c-.92-2.8-2.13-5.05-3.13-7.58l-3.07-6.16c-1.3,2.29-.15,4.2,1.02,5.97l5.18,7.77ZM152.95,32.7c.95,1.08,1.06,1.22,1.81,1.52-.52-1.13-1.05-1.76-2.01-2.87-4.57,4.89-7.96,11.35-8.53,18.03,2.45-6.23,4.71-11.86,8.73-16.68ZM168.66,56.19c-1.94-6.24-5.58-11.01-9.31-15.72-1.64-1.59-2.28-3.88-4.76-4.79,1.46,3.4,3.32,6.24,5.7,8.97,3.24,3.72,5.89,7.65,8.37,11.54ZM161.61,61.05l-2.24-1.63c-.77-.56-1.25-1.32-2.44-1.16l2.73,2.8c2.18,1.79,3.97,3.57,5.83,5.86-.37-2.56-1.93-4.44-3.88-5.86Z"/>
  <path class="cls-1" d="M209.6,276.07c-5.13-16.25-9.56-32.81-13.95-49.53-5.1-19.43-10.17-38.6-14.59-58.11l-3.18-14.03-2.43-11.23.26-.19,10.81,42.87,13.22,50.99,6.42,24.99c1.22,4.77,2.88,9.08,3.45,14.24Z"/>
  <path class="cls-1" d="M162.35,113.75l-2.67.18c-.17.01-.98-.16-.92-.31l.37-.9c1.94-1.38,4.24-1.37,6.59-1.53.44-.11,1.39-.5,1.79-.32l1.31.61c.89-2.56,3.41-5.39,4.46-4.6,1.31.99,2.08,2.55,2.39,4.27-.33.89-1.63,2.01-2.36,2.74-.66.66-1.33,1.16-2.28,1-4.37-.74-6.87.36-8.69-1.12Z"/>
  <path class="cls-1" d="M207.43,309.77l-2.12,3.56c-3.02,1.11-6.84,1.33-9.01-1.05,2.25.27,4.57.73,6.53-.5l2.06-1.29c2.18-1.36-.02-7.8-1.23-9.18l-5.84-6.67-9.45-9.67c1.12.51,2.13,1.12,2.91,1.73l4.57,3.59c3.44,2.7,6.63,6.04,8.33,10.08.42,1,.71,1.78,1.28,2.63,1.09,1.62,1.41,3.63,1.7,5.65,2.1.38,3.55,1.44,4.91,3.33l-.44.16c-.65-.75-1.46-1.38-2.37-1.72l-1.83-.68Z"/>
  <path class="cls-1" d="M155.39,118.73c1.29.56,1.8.36,3.07.08l6.45-1.38c2.45-.53,5.02-.81,7.37-.51.59.08,1.56-.73,1.91-1.14l3.13-3.59c.09,2.89-1.95,5.71-4.32,7.09l-7.2.16-8.43.44c-.74.04-1.83-.43-1.98-1.16Z"/>
  <path class="cls-1" d="M166.08,98.68c.21-.13.78-.12,1-.04s-.08,1-.27,1.14l-2.7,2.03c-6.84,1.75-12.55-.17-15.18-6.36l2.94,2.28c1.2.93,2.65,1.26,4.18,1.71,2.62.76,5.35,1.39,8.1.46l1.92-1.22Z"/>
  <path class="cls-1" d="M165.08,106.57c-.18.12-1.19.05-1.07-.06l.71-.69,3.38-4.24-.05-2.3c-.01-.48,1.44-.8,1.87-.79l.23,5.55c1.31-2.35,1.67-4.65,1.99-7,.75.61,1.23.78,2.37.81l-.82,3.96-3.24,3.05c-.28-.3-.96-1.06-1.24-.89l-1.23.72-2.9,1.89Z"/>
  <path class="cls-1" d="M219.2,332.4c-2.45-1.35-4.39-3.2-4.15-5.43-.58-.45-.97-.86-1.24-1.56,1.14.31,2.22.81,2.79,1.55l2.11,2.77c.57.74,1.54,1.07.49,2.67Z"/>
  <path class="cls-1" d="M210.82,331.16l1.46,1.24c-2.29,1.7-4.85-1.39-6.12-4.55l2.57,1.72,2.1,1.59Z"/>
  <path class="cls-1" d="M168.66,56.19c-2.48-3.88-5.13-7.81-8.37-11.54-2.38-2.73-4.24-5.58-5.7-8.97,2.48.91,3.12,3.2,4.76,4.79,3.73,4.71,7.37,9.48,9.31,15.72Z"/>
  <path class="cls-1" d="M152.95,32.7c-4.02,4.82-6.28,10.45-8.73,16.68.58-6.68,3.96-13.14,8.53-18.03.95,1.11,1.49,1.74,2.01,2.87-.75-.3-.86-.44-1.81-1.52Z"/>
  <path class="cls-1" d="M164.13,39.19l-5.18-7.77c-1.18-1.77-2.32-3.68-1.02-5.97l3.07,6.16c1,2.52,2.21,4.77,3.13,7.58Z"/>
  <path class="cls-1" d="M161.61,61.05c1.95,1.43,3.51,3.3,3.88,5.86-1.86-2.29-3.65-4.07-5.83-5.86l-2.73-2.8c1.19-.16,1.67.6,2.44,1.16l2.24,1.63Z"/>
  <path class="cls-1" d="M156.71,23.34l-.38,1.29-1.52-.44-2.22-5.28c2.39.31,3.36,2.95,4.13,4.44Z"/>
  <path class="cls-1" d="M150.87,29.01l1-6.71c1.25,2.18.55,4.4-1,6.71Z"/>
</svg>