<?xml version="1.0" encoding="UTF-8"?>
<svg id="Calque_2" data-name="Calque 2" xmlns="http://www.w3.org/2000/svg" xmlns:xlink="http://www.w3.org/1999/xlink" viewBox="0 0 223.22 223.22">
  <defs>
    <style>
      .cls-1 {
        fill: none;
      }

      .cls-2 {
        clip-path: url(#clippath);
      }

      .cls-3 {
        fill: #010101;
      }

      .cls-4 {
        fill: #fff;
      }
    </style>
    <clipPath id="clippath">
      <circle class="cls-1" cx="111.61" cy="111.61" r="111.61"/>
    </clipPath>
  </defs>
  <g id="Calque_1-2" data-name="Calque 1">
    <circle class="cls-3" cx="111.61" cy="111.61" r="111.61"/>
    <g class="cls-2">
      <g>
        <path class="cls-4" d="M153.05,287.79l-2.71,7.17-7.37-2.77-1.3-8.91c-.51-4.65-1.28-9.08-2.32-13.65l-2.48-11-6.9-26.89-2.8-9.6-4.57-15.68c-.59-2.02-1.13-4.02-2.33-5.68l-2.94-4.03c-.27-.36-.33-1.09-.08-1.31l3.38,.73c.91,.18,1.82-.39,2.51-.86l1.63-1.12c1.45-1,2.03-2.53,2.35-4.37,1.1,1.8,1.41,3.59,1.48,5.56,0,1.77,.03,3.51,.52,5.27l2.66,10.09,2.57,8.82,.37,1.25,7.03,23.69,7.42,27.56,3.63,15.35,.22,.39h0Zm-14.24-45.33c-.83-4.5-2.17-8.82-3.54-13.19l-1.47-4.72c-.34-1.12-.68-2.23-1-3.34-1.53-5.17-2.96-10.32-4.98-15.43,1.14,5.37,2.71,10.43,4.24,15.57,.26,.86,.51,1.73,.76,2.59l4.29,14.73c.69,1.21,.38,2.74,1.69,3.82"/>
        <path class="cls-4" d="M86.4,165.04c-.32,2.86-2.5,5.29-2.96,4.47l-1.09-1.84c-.32-.11-1.14,.22-1.21,.56-.61,2.27-2.45,4.91-3.18,4.7-.16-.05-.39-.27-.49-.39l-1.34-1.88-.72,2.85-1.53-.44,.32,3.3c.01,.23-.3,.87-.46,.82l-.88-.39c-.22,1.65-.36,3.46-.25,5.19,0,.26-.37,.67-.63,.67-1.89-1.19-3.13-3.25-3.43-5.57l-.73,.59c-.17,.12-.5-.35-.56-.55-.5-1.63-.36-3.18-.26-5.01l-1.23,.99-.42-1.08-1.28,1.51c-1.12-1.63-1.3-3.28-1.65-5.09l-.29-1.47-1.58,1.89c-1.27-1.95-1.07-4.31-.31-6.4l-3.21,1.99c-.71-1.27-.48-2.69-.05-3.96l-.48-.52c.15-1.72,1.14-2.79,2.36-4.01l-4.03,1.53c.05-2.82,1.76-4.71,4.03-6-.39-.53-.83-.29-1.31-.06l-.43,.21c-.11,.05-.22-.39-.19-.47,.9-2.48,2.91-3.91,5.26-4.69l-1.75-.7c.77-.93,1.59-1.53,2.66-1.78l4.43-1.03-1.9-.66c-.21-.16,.22-.77,.57-.87l6.44-1.71,4.19-.45-1.04-.71c-.12-.04-.35-.39-.26-.53,.42-.96,4.94-.59,7.05-.39,2.92,.26,5.79,1.07,8.19,2.84,1.35,.96,2.63,1.62,4.35,1.51l2.62-.15,.02,.72s1.48-.19,2.06-1.1l-1.06-2.05c-.13-.27-.08-.91,.08-1.12,.18-.25,.85-.41,1.17-.3l2.02,.83c-1.3-2-3.51-3.03-5.89-3.06l-7.39-.03c-.57-.02-1.55-.63-2.14-.48-.2,.06-.83-.29-.85-.47-.01-.23,.16-.47,.61-.99-1.12-.48-2.56,.49-2.78,.1l-.53-.89c-2.14-.08-5.85-1.01-5.52-1.96,.26-.75,1.03-.93,1.87-1.3-.37-.35-.95-.59-1.54-.67-2.93-.35-5.54-1.92-4.68-2.6,.37-.31,.97-.5,1.65-.8l-2.8-1.37c-1.25-.61-2.13-1.67-3-2.99,1.04-.57,1.68-.62,3.02-.9l-2.17-1.55c-.37-.48-.65-.8-1.28-1.15-1.08-.6-2.12-1.8-2.61-2.94,.4-1.15,1.84-1.09,3.15-1.04-2.05-1.64-3.64-3.3-4.42-5.92l2.95-.57-1.47-1.39c-.97-.91-1.73-1.66-2.12-3.08l2.48-.38-2.72-1.87c-.16-.05-.37-.48-.27-.63l.38-.58-2.74-3.34c-.09-.12-.14-.62-.06-.73,.68-.69,4.36,.58,6.14,1.73l.25-.71c.15-.7,3.08,1.2,4.78,2.58,.03-.61-.12-1.33-.24-1.99-.17-.9,1.72-.24,3.43,1.85l.17-1.76c2,.25,3.13,1.7,4.32,3.14l.6-1.48,1.95,1.65,.02-1.72c0-1.95,2.37-.2,4.16,1.66l.88-.36,1.68,2.31c.16,.05,.77-.04,.84-.24l.16-.96c.06-.29,.1-.67,.25-.84s.69,.06,.87,.17l2.73,1.96c.46-.06,1.14,.04,1.44,.59l1.61,3.04,.72-1.3c.89-1.55,2.7,1.91,3.32,4.47l1.29-.66c.23-.14,.91-.08,1,.17l1.46,3.21,.87-1.11c1.2,1.66,1.23,3.48,1.43,5.33l1.68-.62c.8,1.39,.66,2.71,.49,4.2l-.23,1.96c.77-.31,1.34-.55,2-.41,.21,1.18-.08,2.28-.16,3.4l-.14,1.68c-.24,3.64-4.52,6.9-4.67,8.48l-.42,4.15c-.83-1.17-1.55-2.44-1.72-3.74-.35-3.22-.2-6.32-.23-9.56-.04-3.6-.3-7.06-.88-10.63l-1.23-4.9c-.26,1.02,0,1.91,.18,2.94,.8,5.11,.82,10.16,.84,15.35l.07,6.58c-1.71-1.97-3.45-3.72-4.64-5.91-.84-1.53-.95-3.39-1.25-5.08-1.43-7.5-2.48-14.46-6.7-21.19,.41,2,1.24,3.71,1.89,5.66,1.34,3.92,2.2,7.85,3,11.94l1.39,7.13c-2.31-2.66-4.61-4.97-6.49-7.74-1.34-2.01-1.86-7.16-4.35-11.61-1.5-2.69-3.13-5.16-5.06-7.64-.21,.99,.5,1.5,.87,2.21l3.68,6.9c1.37,2.56,2.11,5.29,2.93,8.28-1.85-1.57-3.23-3.2-4.77-4.89-2.48-2.68-5.02-5.2-7.71-7.68-.64-.58-1.04-1.2-1.33-1.92v.49c-.02,.08-.36,.05-.44,.02l-5.26-3.99c-1.1-.65-2.07-1.43-3.34-1.87,2.9,2.24,5.59,4.46,8.31,6.95,3.41,2.82,6.39,5.98,9.34,9.22l.09,.38c.01,.09-.1,.28-.18,.25l-.44-.15c-3.55-1.76-7.1-3.3-10.8-4.76-1.21-.46-2.28-1.1-3.6-.98,5.36,3.32,13.25,5.34,17.73,8.67,1.42,1.02,2.59,2.49,3.73,3.82l4.11,4.75c.13,.13,.06,.6-.07,.73-4.88-2.27-9.75-3.95-14.9-5.34l-5.7-1.58-.52,.22c-.11,.05,.22,.39,.34,.43l2.93,1.01c6.21,2.02,12.25,3.89,18.27,6.33,3.21,1.33,5.09,4.87,8.26,7.74,1.86,1.66,3.55,3.31,4.69,5.65l-2.83-.67h-.66s-.25-1.07-2.61-1.04l1.19,1.43-1.94,.75,2.85-.3c1.84-.2,3.76,.15,5.07,1.49l-1.23-.42-2.59,.43,1.09,.82c-.13,.13-.38,.58-.26,.75l.83,1.17-1.67,.35,1.19,1.03-.87,.1,.59,1.75c.04,.15,.06,.6,.04,.77-.07,.2-.61,.23-.76,.4l-.48,.5-.9,.17c.89,.88,.78,1.96-.08,2.67l-1.47-.73c-.25,1.86-.3,4.46-1.98,4.81l-1.44-2.36-1.28,2.04c.26,.8,.44,1.92,.07,2.73-.08,.24-.71,.64-.92,.48l-1.02-.75c-.4,1.68-.77,3.37-2.42,4.57l-1.46-2.06c-.12-.17-.62-.39-.75-.26-.73,.59-.71,2.81-2.11,4.05-.27,.26-.99-.34-1.51-.88m-14.36-60.48l-4.06-1.58-.12,.36,1.83,.72c.79,.27,1.44,.59,2.31,.49m15.28,25.98c2.48,.37,4.71,1.1,7.2,1.96-.9-1.11-2.3-1.02-3.44-1.46-2.2-.81-4.41-1.08-6.71-1.22-.87-.04-1.71-.06-2.57,.39l5.5,.36h0v-.04Zm12.95,4.61c-.99-1.1-2.21-1.43-3.54-1.93-.75-.26-1.34-1.13-2.39-.78l2.65,1.18,3.28,1.53Zm-26.79,24.26l-1.81,4.96-.65,2.26-.62,4.48c-.34,2.27-.38,4.56,.36,6.9,.09-6.13,1.21-12.07,3.93-17.6,1.36-2.76,2.7-5.36,5.07-7.59l.51,3.9c.31,2.19,.58,4.32,.74,6.55l.32,4.32c.71-3.21,.72-6.31,.12-9.44l-.91-5.05c-.19-1.13,.62-1.91,1.33-2.55,1.55-1.41,3.09-2.65,5.04-3.79-.04,1.14,0,1.81,.29,2.76,.93,2.94,1.72,5.91,2.03,8.99,.11,1.1,.06,2.01,.48,3.09,.22-.63,.2-1.08,.23-1.69,.09-3.33-.29-6.57-1.81-9.62-.62-1.28-1.02-3.06,0-4.21l4.81-2.23c.27-.13,.38,.71,.25,1.06l4.72,9.26c-.2-2.24-1.11-4.46-2.4-6.37l-2.16-3.23,1.43-1.32c-.55-.19-1.41-.4-2.11-.29l-2.48,.38c-.47-.16-1.17-.45-1.74-.6-2.95-.58-5.8-1.17-8.83-1.11-3.42,.01-6.85,.33-10.12,1.32l6.99-.86c3.79-.46,7.53,.26,11.27,1.11l1.97,.46-3.94,1.78c-.37,.18-1.15,.13-1.64,.14-7.73-.2-15.41,1.26-22.32,4.85l7.04-2.17c3.69-.94,7.3-1.77,11.09-1.83l4.56-.11c-.61,.85-1.31,1.23-2.06,1.86l-2.66,2.31-2.71,.66c-5.42,1.31-11.33,3.3-15.57,6.83-.75,.63-1.46,1.27-1.75,2.23,1.73-1.79,3.68-3.07,5.91-4.15,4.14-1.98,8.37-3.7,13.06-4.33l-4.35,6.03c-.87,.98-2.4,1.56-3.51,2.33-2.88,1.93-6.62,4.66-6.96,7.42,2.65-3.42,5.63-6.16,9.6-8.02m2.23,10.96c.14-1.55-.02-3.02-.52-4.52-.04,1.54-.04,3.04,.52,4.52"/>
        <path class="cls-4" d="M131.68,88.94c-2.1,.43-3.96,1.6-4.86,3.54-.34,.72-.33,1.97-.48,2.67-1.86,1.39-1.53,3.01-3.34,3.01l-.12-2.21c-.08-1.44,.83-2.9,.77-4.39-.09-1.67-1.57-2.76-2.94-3.54-2.45-.85-4.57-2.03-6.36-3.89-.22-.12-.41-.98-.15-.98l2.4-.14-2.5-1.09c-.36-.12-.78-.45-1.04-.71-1.43-1.25-2.83-2.18-3.97-3.9,.8-.26,1.5-.37,2.18-.4,.15-.04-.06-.73-.26-.8l-2.86-.81c-.16-.05-.55-.32-.51-.44l.19-.55c-1.61-1.22-3.32-2.43-4.33-4.38,1.44-.57,2.77-.46,4.21-.4l-3.85-2.04c-1.64-.88-3.93-2.6-3.15-3.44l1.8-.35-1.51-1.28c-1.95-1.65-4.13-4.44-2.52-4.5l2.65-.1-2.41-2.38c-.13-.13,.11-.58,.25-.58l.78-.08c-2.09-1.65-4.04-4.72-2.24-4.54l2.14,.21-1.01-1.55,.79-.35c-1.8-1.07-3.25-2.63-4.05-4.81,.92-.21,1.56-.17,2.69-.09l-1.27-1.33c-1.05-1.07-2.03-1.94-2.43-3.59l2.69,.04-2.92-2.56c-.17-.15-.41-.85-.2-.96s.51-.18,.93-.25c-.98-1.27-2.1-2.63-3.18-3.85-1.54-1.69,3.98-1.01,6.64,2.3l.63-1.06c2.57,.76,3.31,2.21,4.63,4.04,.21-.86,.35-1.39,.61-2.01,1.98,.69,3.14,2.06,3.93,3.88l1.1,.91c.22-.5,.54-1.05,.85-1.43,1.58,.68,2.45,2.13,3.18,3.49l.7-.11c.52-.09,.61,2.07,2.29,2.61,.33-.68,.7-1.39,1.29-1.68,1.62,.69,2.5,2.37,3.09,3.86l1.32-.61c1.13,.83,1.57,1.87,1.51,3.31l.76-.67,.63,.75,1.8-1.99c1.8,1.2,2.4,2.78,2.91,4.77,.48-.37,1.52-.8,1.79-.44,.86,1.1,.97,2.2,1.24,3.58l1.24-.77,.46,1.36c.84-.51,1.6-.91,2.53-1.16l1.77,3.32c.43,.81,.29,1.96,.16,2.98l2.28-.45c.79,1.43,.46,2.9,.11,4.42l-.26,1.15,1.15-.89c.08,.16,.48,.65,.72,.6l1.96-.29c.65,2.09,.14,3.81-1.07,5.65h1.91c.04,.76-.14,1.68-.61,2.27l-2.16,2.79,2.46-.08c-.21,2.01-1.39,3.24-2.84,4.24v.89s-2.7,1.54-2.7,1.54l1.76,.17c1.68,.14-.93,2.56-3.61,3.27l.2,.82c-1.95,1.14-3.97,1.86-6.26,2.35m5.4-14.83c1.73-2.32,2.85-4.77,3.44-7.62-1.06,1.14-1.37,2.54-2.18,3.85-2.15,3.51-4.58,6.7-7.09,9.99l-4.91,6.36c-.55-1.48-.81-5.86-.46-6.85l.83-2.64c3.06-6.65,6.23-13.88,6.05-21.43-.61,.99-.79,2.03-.96,3.17-.47,2.63-1.03,5.14-1.98,7.64l-3.55,8.96c-.4,1.01-.67,1.94-1.36,2.9l-2.13-7.78c-.52-1.95,.05-4.1,.28-6.06l.74-5.72c.39-3.05,.3-6.1-.04-9.23-.59,1.97-.6,3.78-.78,5.71l-.77,7.09-.41,3.09c-.1,.67,.04,1.3-.5,1.95l-2.93-6.11c-.36-.75-.8-1.65-.87-2.47l-.2-3.13c-.19-2.77-.29-5.42-.99-8.14l-.95-3.78c-.15,.44-.29,.96-.21,1.39,.65,3.99,1.19,7.94,1.09,12.07l-5.32-8.04c-1.1-3.22-.91-7.09-2.97-9.84,.5,2.79,1.17,5.06,1.35,7.73-1.05-1.07-1.79-2.13-2.77-3.26-3.03-3.53-6.26-6.86-10.03-9.54,4.06,4.51,8.19,8.46,11.72,13.36-2.53-.88-4.25-2.58-6.38-3.72-1.16-.62-2.13-1.4-3.54-1.54l9.46,5.94c1.24,.78,2.35,1.79,3.15,3.04l4.67,7.38-1.66-1.1c-2.94-2.26-5.81-4.58-9.25-6.17-1.65-.75-3.26-1.84-5.18-1.53,4.04,1.89,7.7,3.6,11.13,6.11,2.13,1.53,4.11,2.97,5.94,4.85l3.74,7.5-.06,.56c-.04,.12-.41-.1-.51-.18-2.88-2.68-5.83-5.03-9.05-7.25-2.25-1.44-4.52-2.54-7.04-3.46-.83-.29-1.7-.46-2.58-.23,6.16,2.18,11.46,5.79,16.41,9.8,1.31,1.07,2.78,2.07,3.59,3.59,1.27,2.48,1.99,5.12,2.55,7.97-1.18-.68-1.75-1.72-2.66-2.56l-3.4-3.22c-2.74-2.59-8.72-6.17-12.5-6.9l6.97,3.92c4.67,2.64,8.52,6.36,11.94,10.43,.43,1.83,.75,3.45,.64,5.45-3.07-3.68-6.28-6.69-10.3-9.02-.99-.61-2.05-1.24-3.22-.94,5.47,2.25,10.93,6.31,13.6,11.27,.78,1.47,.14,3.68,.71,5.25,.45-.91,.59-1.57,.7-2.41l.22-2.18c.55-.3,.71-.64,1.1-1.13l9.72-13.11h-.04Z"/>
        <path class="cls-4" d="M156.66,129.48l-.85,.28-1.54-2.84-1.11,2.81c-.59,1.44-3.2-1.37-3.37-3.96-.49,.4-.86,.68-1.32,.87l-2.12-3.61c-.94,1.45-.45,3.74-1.2,3.84-.78,.08-3.41-2.82-3.64-4.98l-1.24,1.16c-1.07-.99-1.34-2.28-1.86-3.57l-.75-1.81-1.46,3.57c-1.89-1.32-2.62-3.17-3.13-5.29l-1.31,1.1c-.93-1.16-1.07-2.41-1.57-3.65l-.81-2.01-1.59,2.28c-1.23-1.18-1.86-2.68-1.75-4.42l-.95-.06-.16-2.98c-.41,.3-1.16,.66-1.38,.41l-.88-.92c-.26-.8,.14-1.94,.58-2.81l-1.56,.17c-.22-1.14,.64-1.86,1.19-2.55l-.4-.63c-.38-.57,2.21-2.16,5.22-1.12l2.85,.99-.94-1.12c1.31-1.23,2.81-2.22,3.39-1.09,2.15-1.74,2.88-4.98,5.8-6.14,.47-.19,.85-.28,1.26-.58,1.47-1.04,3.93-1.74,4.08-1.16,.02,.19-.03,.48-.1,.67l-.42,.96,1.93-.84c1.82-.79,3.83-1.33,5.81-.91,.49,1.01-1.09,1.48-.55,2.11,2.29-.98,4.95-1.25,7.2-.21,.1,1.23-2.11,1.22-.85,1.7,2.51-.33,4.87,0,7.15,1.1l1.34,1.26-1.98,1,2.53,.61c.41,.1,1,.44,1.45,.68,2.34,1.3,4.32,3.14,3.11,3.29l-2.41,.32c1.6,.87,2.73,1.7,3.95,2.92,1.58,1.57,3.72,3.72,1.7,3.78l-3.22,.08,3.43,2.12c.14,.09,.4,.76,.24,.84l-.73,.45c1.45,.94,2.65,2.2,2.55,3.9l-2.55-.31,1.56,2.14-.34,.72c1.27,1.46,2.04,4.21,1.39,4.16-.17-.02-.38-.04-.66-.14l-2.57-.63,1.86,3.97c.52,1.07,.77,2.26,.67,3.56l-2.93-.88c1.23,2.07,3.02,5.08,1.89,6.81l-2.21-.77c.63,1.24,1.22,2.5,1.48,3.66,.06,.2-.13,.89-.3,.87l-1.04-.18c.74,2.21,.32,4.58-1.24,6.39l-.53,.13c-.11,.05-.21-.29-.25-.44l-.68-2.14-1.3-3.02-.71,.51c-.69,.47-1.28-2.57-1.65-3.94l-.33-1.35c-.58,.91-.94,1.45-1.72,2.15-1.27-1.33-1.8-2.62-2.61-4.09l-.75-1.41-1.32,2.16c-1.5-1.05-2.1-2.37-2.77-4.02m-3.24-16.98c2.41,1.86,4,3.91,5.75,6.02,.81,.99,1.6,2.02,1.87,3.3l.95,5.07,.58,4.32c.66-2.92-.17-5.51-.27-8.55,2.25,3.08,3.81,6.15,5.46,9.29l2.99,6.97c-.32-2.41-1.32-4.49-2.09-6.75-.92-2.71-2.23-5.07-3.72-7.67,.68-.03,.85,.47,1.27,.8l5.17,4.14c-1.36-1.84-3.02-3.31-4.83-4.73-1.78-1.37-3.09-2.98-4.47-4.74l-2.96-3.86c5.22,1.54,9.72,4.16,13.56,7.66-.57-1.3-1.39-2.12-2.39-2.95-5.28-4.44-11.4-5.46-12.7-6.57l-4.06-3.62-2.63-2.37c7.4,.75,15.31,3.13,21.61,6.69l.11-.32c-5.79-4-12.58-6.13-19.5-7.02-1.19-.15-2.82-.05-3.84-.67l-5.34-3.13,4.96-.76c4.22-.67,8.37-.64,12.66-.49,2.54,.08,4.77,.55,7.31,1.03-3.19-1.55-6.58-1.84-10.04-1.97-3.28-.12-6.38,0-9.6,.48-2.28,.32-4.51,1.01-6.84,.69-1.43-.23-2.79-1.14-4.28-1.7l2.91-.85,4.93-1.7c4.63-1.59,9.38-2.02,14.25-2.77-4.55-.42-8.8,.59-13.07,1.67l-4.68,1.48c-2.88,.91-4.99,2.13-8.18,.84,1.81-.88,3.38-1.71,4.97-2.84l3.84-2.66,2.48-1.53c-.48-.03-.9,.04-1.19,.25l-5.54,3.71c-1.67,1.11-3.34,2.34-5.34,2.76l-1.62,.33c1.37,.78,1.83,1.74,1.29,3.06l-1.65,3.99c-.65,1.63-1.04,3.27-.87,4.93l1.59-4.59c.59-1.7,2.04-3.46,1.35-6.44l2.24,.69c3.48,1.07,3.1,4.62,2.87,7.82l-.4,5.49c-.08,1.12-.01,2.21,.35,3.22l1.08-9.51c.21-2.01-.29-3.78-1.1-5.65,1.26,.21,2.19,.85,3.21,1.33,1.53,.71,2.73,1.7,3.12,3.39l1.11,4.99,.74,8.36c.08,.91,.22,1.67,.59,2.51l.08-3.3c.09-3.07-.19-6.09-.83-9.1l-1.53-4.92c2.6,1.57,4.93,3.17,6.9,5.27,1.58,1.7,2.75,9.72,3.04,12.97,.13,1.15,.11,2.25,.46,3.39,.64-3.5,.07-6.84-.58-10.21l-1.35-4.94h0l-.17-.02Zm-27.39-7.76l4.22-3.99c-1.89,.72-3.4,2.14-4.22,3.99"/>
        <path class="cls-4" d="M111.3,177.38c1.16-1.55,2.61,.9,3.27,3.08l-.42,.7,.6-.32c.16-.08,.37,.08,.75,.26,1.06-1.27,1.33-2.68,1.86-3.21,.4-.39,1.38,1.76,.95,3.25l-.86,3.11-1.3,1.45c.59,1.49,1.46,3.34,2.64,3.13,.66-.12,.69-1.22,.13-2.43-.33-.82-.3-1.57,.2-2.23l.84,1.66c.13-1.64-.06-3.03,.37-4.52,.25-.71,.29-1.23,.26-2.04l-1.2,.38-5.29-15.6c-.99-1.63-1.98-3.12-3.5-4.22-.61-1.45-1.61-2.38-2.99-3.12-.92-.67-2.15-1.45-2.21-2.71-.02-.32,.79-.48,1.26-.45-.57-.64-1.3-1.11-2.25-1.58l.13-1.15c1.94-.35,.26-1.51,1.26-2.62l-.5-1.24c.56-.21,1.13-.45,1.49-.72l-1-1.98c.29-.08,.78,.05,1.02,.26l1.45,1.3,.54-.52c.12-.09,.34,.3,.56,.55l.56-.34,.96,1.44c-.06-2.64-1.85-3.87-3.44-5.67-.31-.37-.51-1.33-.51-1.86l-.05-4.45c0-.49,.16-.96,.68-1.18,2.32,2.4,7.77,7.74,6.6,10.35l-2.12,4.85-1.18-1.96,.75,2.96c.23,.88,.46,1.62,.96,2.46l1.67-2.39c.75,1.54-.51,3.77,0,5.63,.9-3.37,.86-6.7,.99-10.16l.67-21.38c.06-1.84-.04-3.6-.4-5.37-.1-.48-.08-.78,.28-1.19-2.38-2.6-3.47-5.72-1.95-9.09,.55,.85,.51,1.59,1.45,1.96-.59-1.62-.93-3.2-1.2-4.98-.37-2.39-.58-4.72,.15-7.08,.47-1.48,1.41-2.66,2.35-3.84l2.26-2.81c.09-.14,.51-.31,.61-.23,.62,.39,.29,1.61,1.1,2.95,.92,1.43,1.32,2.98,1.57,4.66l-1.88,5.42c-.99-.34-.84-1.8-1.84-2.23,1.02,2.3,2.33,6.57,.26,7.05l-.4,1.15c-.1,.28,.27,.89,.56,.95,.36,.12,.9-.17,1.04-.57l1.15-3.32c.78-.22,1.17-.57,1.46-1.27,.42,1.08,.75,1.81,1.58,2.72-.16,.21-.57,.38-1.08,.42-1.55,.26-3.85,2.03-2.81,3.5l1.43,.36,2.95-2.39c.25,.31,.51,.58,.49,.75-.03,.21-.26,.62-.41,.79l-.79,.88,1.8-.71c.98,1.14-.6,1.61-.65,3.67,0,1.42-1.06,2.16-1.8,3.14-2.19,3.01-2.52,12.77-2.72,17.57l-.66,15.59c-.1,2.09,.07,4.01,.62,6.02,.85,3.04,5.8,26.94,5.8,26.94,.53,2.04,.23,4.2-1.07,5.79-2.28,2.75-3.84,3.41-7.42,2.75-3.57-1.86-6.25-4.73-7.92-8.33l.16-.47c.05-.52,1.81,1.16,3.44,.93l-1.14-5.27-.66-2.05c-.46,.82-.24,1.47-.07,2.24l.5,2.12c-.46-.07-.67-.23-.97-.51-1.35-1.22-2.7-2.31-3.71-3.86-.75-1.15-.82-2.63-1.33-3.83l-1.89-4.38c-.73-1.72-.5-3.41-.31-5.25l-.24-3.4c0-.26,.11-.58,.25-.71s.68-.03,.86,.08l3.38,1.88c2.2,1.2,3.81,2.69,5.13,4.75,1.64,2.56,2.81,5.45,2.67,8.54-.51,.71-.81,1.31-1.18,2.25,.2,.07-.24-.08-.34-.16-.79-1.29-1.51-2.92-2.87-3.74l-4.6-2.7c-.18-.51-.35-.26-.24,.05,1.34,2.01,2.8,3.67,4.68,5.03m-.3-6.44c-.65-2.97-2.21-4.75-4.98-6.33l1.3,2.76c1,1.32,1.81,2.84,3.64,3.56"/>
        <path class="cls-4" d="M129.68,95.86c-1.1-.29-2.58,.04-3.18,1.11l-.38,.71c-.07,.2-.75,0-.86-.21,1.17-2.61,3.97-3.28,6.95-3.18,0,.89-.33,1.35-.82,1.84l-1.66,1.86c-.2,.2-.76,.53-1.07,.52s-.99-.34-1.11-.52c1.07-.65,1.77-.89,2.09-2.2"/>
      </g>
    </g>
  </g>
</svg>