<?xml version="1.0" encoding="UTF-8"?>
<svg id="Layer_1" data-name="Layer 1" xmlns="http://www.w3.org/2000/svg" xmlns:xlink="http://www.w3.org/1999/xlink" viewBox="0 0 288 290.89">
  <defs>
    <style>
      .cls-1 {
        fill: none;
      }

      .cls-2 {
        fill: #fff;
      }

      .cls-3 {
        clip-path: url(#clippath);
      }
    </style>
    <clipPath id="clippath">
      <rect class="cls-1" x="-8.67" y="-68.13" width="326.57" height="477.7"/>
    </clipPath>
  </defs>
  <g class="cls-3">
    <path d="M305.09,397.41l-.32,11.87-12.17-.33-6.44-12.4c-3.08-6.56-6.46-12.64-10.29-18.79l-9.22-14.82-23.7-35.82-23.59-33.25c-1.89-2.66-3.71-5.33-6.31-7.14l-6.35-4.42c-.57-.39-1.03-1.4-.75-1.91l5.34-.67c1.44-.18,2.48-1.49,3.27-2.54l1.83-2.49c1.63-2.22,1.69-4.72,1.21-7.59,2.56,2.06,3.86,4.57,4.96,7.36.91,2.62,1.84,5.14,3.41,7.48l9.03,13.44,8.21,11.62,23.48,32.77,24.83,36.54,13.1,20.62.49.47ZM261.26,338.28c-3.51-6.15-7.66-11.81-11.86-17.53l-4.54-6.18c-6.04-8.22-11.55-16.6-18.31-24.41,5.09,8.46,10.87,16.06,16.52,24.03l13.76,19.39c1.65,1.41,1.97,3.81,4.43,4.7"/>
    <path d="M121.42,214.99c.99,4.32-.95,9.02-2.09,8.07l-2.55-2.11c-.54.01-1.55.93-1.52,1.45.23,3.6-1.07,8.43-2.3,8.52-.23.02-.71-.19-.92-.34l-2.91-2.05.42,4.53-2.47.12,2.13,4.67c.13.3.06,1.43-.24,1.41l-1.46-.11c.51,2.5,1.25,5.28,2.26,7.71.15.36-.22,1.14-.56,1.29-3.39-.75-6.2-3.19-7.83-6.44l-.81,1.23c-.18.27-.92-.23-1.13-.52-1.55-2.13-2.17-4.48-2.89-7.22l-1.32,2.09-1.15-1.38-1.1,2.85c-2.46-1.83-3.58-4.16-5.02-6.63l-1.15-1.98-1.39,3.58c-2.87-2.2-3.74-5.74-3.72-9.23l-3.72,4.54c-1.68-1.47-2.07-3.67-2.06-5.77l-.95-.53c-.63-2.57.26-4.66,1.44-7.07l-5.13,4.3c-1.37-4.12.22-7.79,2.82-10.84-.83-.57-1.33.02-1.92.57l-.54.51c-.11.11-.5-.48-.53-.57.09-4.07,2.24-7.22,5.31-9.55l-2.93-.13c.62-1.78,1.54-3.04,2.97-3.94l5.96-3.77-3.08.07c-.38-.22-.07-1.32.39-1.63l8.54-5.76,5.89-2.79-1.89-.52c-.22-.06-.69-.41-.67-.62.13-1.61,6.96-3.38,10.13-4.18,4.39-1.1,9.04-1.38,13.41-.06,2.47.74,4.65,1.04,7.13.02l3.75-1.53.42,1.04c.04.09,2.09-1.05,2.46-2.65l-2.58-2.44c-.32-.3-.56-1.27-.44-1.66.14-.45,1.03-1.04,1.54-1.02l3.39.2c-2.91-2.29-6.65-2.68-10.17-1.47l-10.81,3.7c-.84.29-2.59-.13-3.4.4-.28.19-1.38.04-1.51-.26-.16-.35.05-.75.38-1.72-1.86-.13-3.51,2-4.04,1.57l-1.23-1.02c-3.19.98-9.08,1.52-9.1-.09-.02-1.2,1.04-1.86,2.1-2.85-.71-.3-1.7-.37-2.61-.18-4.47.96-9.1.03-8.19-1.44.39-.62,1.16-1.21,2.03-1.99l-4.78-.58c-2.15-.26-3.97-1.36-5.88-2.83,1.26-1.38,2.17-1.73,3.94-2.86l-3.96-1.18c-.77-.53-1.39-.83-2.44-1.02-1.86-.35-3.99-1.58-5.34-2.99-.01-1.87,2.12-2.55,4.07-3.12-3.82-1.36-7-3-9.46-6.39l4.05-2.34-2.88-1.28c-1.88-.84-3.39-1.58-4.66-3.44l3.45-1.84-4.92-1.33c-.23-.06-.78-.55-.73-.76l.26-1.05-5.72-3.52c-.22-.13-.51-.85-.43-1.02.63-1.39,6.68-1.33,9.88-.56l-.05-1.18c-.05-1.11,5.15.19,8.37,1.34-.28-.92-.83-1.86-1.34-2.77-.7-1.24,2.42-1.2,5.95.95l-.64-2.66c3.02-.67,5.44.91,7.93,2.42l.13-2.46,3.69,1.41-.83-2.51c-.94-2.83,3.34-1.46,6.95.3l1.08-.99,3.64,2.54c.27.06,1.13-.44,1.07-.78l-.28-1.5c-.08-.43-.17-1.04-.07-1.35.11-.31,1.01-.28,1.33-.18l4.99,1.52c.68-.31,1.69-.55,2.42.12l3.88,3.6.42-2.24c.5-2.7,4.92,1.44,7.15,4.83l1.53-1.65c.28-.3,1.3-.56,1.58-.25l3.78,3.97.69-2.05c2.6,1.79,3.59,4.5,4.81,7.04l2.15-1.72c1.9,1.6,2.32,3.63,2.82,5.89l.66,2.99c.98-.87,1.68-1.47,2.74-1.63.93,1.62,1.01,3.34,1.47,5.07l.67,2.52c1.46,5.47-3.12,12.35-2.54,14.8l1.5,6.3c-1.83-1.27-3.52-2.76-4.4-4.6-2.16-4.53-3.49-9.15-5.19-13.86-1.88-5.24-4.04-10.19-6.67-15.08l-4.31-6.52c.1,1.59.98,2.76,1.76,4.23,3.74,7.06,6.34,14.48,9.02,22.02l3.42,9.61c-3.51-2-6.95-3.68-9.77-6.26-1.98-1.82-3.09-4.47-4.43-6.81-5.91-10.27-10.98-19.89-20.58-27.64,1.62,2.75,3.71,4.81,5.65,7.3,3.94,5.05,7.2,10.39,10.43,15.96l5.64,9.72c-4.74-2.75-9.29-4.95-13.42-8.05-3.01-2.25-6.33-9.52-12.27-14.81-3.56-3.17-7.2-5.94-11.31-8.63.18,1.54,1.48,1.96,2.39,2.8l8.9,8.23c3.31,3.06,5.78,6.66,8.52,10.64-3.5-1.36-6.34-3.04-9.46-4.72-4.99-2.68-9.97-5.03-15.17-7.32-1.23-.54-2.11-1.24-2.94-2.14l.28.71c.05.12-.52.23-.66.23l-9.75-3.15c-1.95-.42-3.77-1.05-5.84-1.02,5.41,1.83,10.46,3.72,15.72,5.97,6.45,2.41,12.37,5.52,18.37,8.74l.33.49c.08.12-.01.47-.15.45l-.7-.08c-6.1-.73-12.08-1.16-18.24-1.44-1.98-.09-3.89-.48-5.76.41,9.54,2.14,22.1,1.13,30.37,3.68,2.59.8,5.07,2.34,7.37,3.67l8.44,4.86c.24.14.39.82.25,1.1-8.33-.85-16.28-.85-24.53-.24l-9.17.6-.65.57c-.12.11.52.45.71.45l4.79-.06c10.09-.13,19.89-.47,29.97.1,5.35.31,9.92,4.57,16.04,7.14,3.58,1.5,6.86,3.06,9.7,5.93l-4.5.45-.95.33s-.91-1.42-4.33-.18l2.48,1.51-2.47,2.1,4-1.91c2.59-1.23,5.56-1.71,8.18-.41l-2.04-.03-3.56,1.95,2,.65c-.11.23-.27,1.04-.06,1.2l1.83,1.31-2.28,1.37,2.24.93-1.25.58,1.75,2.28c.16.21.42.83.47,1.08.06.31-.76.63-.9.95l-.44.94-1.2.7c1.74.82,2.11,2.44,1.26,3.97l-2.54-.35c.57,2.88,1.81,6.67-.43,8.03l-3.28-2.75-.82,3.6c.75,1.04,1.65,2.57,1.47,3.97-.05.38-.74,1.29-1.1,1.17l-1.89-.59c.29,2.64.58,5.29-1.26,7.9l-3.19-2.3c-.24-.17-1.08-.28-1.22-.06-.79,1.21.42,4.5-1.02,7.01-.29.49-1.6-.02-2.65-.52M69.93,133.66l-6.72-.24v.57s3.05.15,3.05.15c1.29.06,2.42.1,3.66-.48M105.33,163.94c3.84-.7,7.45-.8,11.51-.81-1.88-1.14-3.86-.33-5.74-.36-3.61-.07-7.02.62-10.45,1.6-1.31.37-2.55.79-3.55,1.86l8.22-2.29ZM126.65,164.12c-1.99-1.11-3.98-.95-6.13-1.06-1.26-.06-2.53-.97-3.91.08l4.49.37,5.55.61ZM99.69,213.25l-.1,8.2.17,3.61,1.34,6.89c.68,3.52,1.73,6.89,3.99,9.94-3.01-9-4.33-18.28-3.18-27.74.57-4.73,1.2-9.22,3.55-13.65l2.74,5.46c1.54,3.07,3.04,6.03,4.41,9.2l2.67,6.19c-.61-5.05-2.17-9.58-4.58-13.9l-3.88-6.95c-.87-1.56-.09-3.11.63-4.43,1.56-2.84,3.15-5.46,5.43-8.11.51,1.67.9,2.66,1.8,3.87,2.87,3.83,5.48,7.81,7.55,12.12.74,1.54,1.13,2.89,2.26,4.25-.02-1.03-.23-1.69-.5-2.57-1.56-4.93-3.75-9.48-7.49-13.18-1.56-1.54-3.05-3.94-2.15-6.16l5.88-5.73c.34-.33.92.87.89,1.4l11.63,11.17c-1.4-3.2-3.89-5.96-6.74-8.13l-4.82-3.66,1.42-2.64c-.92.04-2.24.16-3.23.67l-3.43,1.79c-.81-.05-1.96-.08-2.87.04-4.6.63-9.07,1.25-13.49,2.82-5.02,1.78-9.85,3.95-14.15,7.08l9.81-4.78c5.32-2.59,11.15-3.46,17.05-4.07l3.13-.32-4.83,4.58c-.46.44-1.64.8-2.34,1.02-11.39,3.63-21.91,9.67-30.22,18.42l9.19-6.72c4.9-3.24,9.77-6.27,15.29-8.33l6.59-2.45c-.46,1.58-1.3,2.44-2.05,3.75l-2.72,4.75-3.65,2.34c-7.25,4.65-14.94,10.54-19.34,17.9-.78,1.3-1.5,2.57-1.41,4.15,1.65-3.51,3.8-6.34,6.56-9.08,5.03-4.99,10.34-9.69,16.92-12.95l-3.33,11.05c-.75,1.91-2.72,3.53-3.94,5.16-3.25,4.3-7.32,10.18-6.4,14.39,2.15-6.33,5.14-11.87,9.96-16.61M108.57,228.2c-.59-2.34-1.56-4.42-3.03-6.37.69,2.25,1.49,4.48,3.03,6.37"/>
    <path d="M149.09,80.64c-2.84,1.7-5.02,4.35-5.3,7.68-.11,1.24.49,3.04.62,4.17-2.04,2.99-.72,5.2-3.38,6.09l-1.32-3.15c-.87-2.08-.27-4.69-1.13-6.78-.99-2.4-3.7-3.26-6.1-3.71-4.01.05-7.72-.62-11.27-2.44-.37-.07-1.12-1.22-.73-1.38l3.46-1.4-4.24-.31c-.56-.04-1.37-.28-1.91-.49-2.74-1.08-5.24-1.76-7.75-3.71,1.02-.81,2-1.27,3-1.68.21-.11-.46-1.04-.8-1.02l-4.59.25c-.24.01-.98-.17-.99-.41l-.03-.93c-2.98-1-6.08-1.88-8.54-4.2,1.8-1.54,3.82-2.06,5.99-2.71l-6.67-1.03c-2.85-.44-7.08-1.81-6.34-3.45l2.47-1.42-2.86-1.11c-3.68-1.42-8.3-4.4-5.96-5.32l3.84-1.51-4.71-2.24c-.25-.12-.12-.88.07-.97l1.08-.52c-3.87-1.36-8.3-4.86-5.59-5.53l3.25-.81-2.24-1.77.97-.88c-3.17-.66-6.09-2.21-8.36-5,1.23-.81,2.23-1.03,3.89-1.51l-2.5-1.28c-2.08-1.06-3.95-1.81-5.41-4l3.95-1.28-5.56-2.25c-.33-.14-1.02-1.04-.79-1.27.23-.23.65-.51,1.22-.87-2.07-1.35-4.4-2.8-6.59-3.99-3.14-1.7,5.3-3.51,10.9,0l.36-1.88c4.12-.22,5.96,1.58,8.82,3.59-.14-1.36-.22-2.21-.13-3.26,3.21.04,5.63,1.44,7.69,3.69l2.1.79c.09-.85.24-1.83.49-2.5,2.67.19,4.64,1.86,6.45,3.52l.99-.52c.71-.37,1.97,2.7,4.65,2.64.13-1.17.34-2.43,1.06-3.08,2.71.17,4.87,2.18,6.46,4.09l1.6-1.58c2.07.65,3.21,1.97,3.92,4.09l.79-1.38,1.32.75,1.59-3.84c3.27.83,4.93,2.88,6.68,5.51.51-.8,1.8-1.92,2.38-1.54,1.8,1.19,2.51,2.74,3.63,4.62l1.41-1.73,1.39,1.77c1-1.17,1.86-2.11,3.1-2.96l4.25,3.96c1.06.99,1.41,2.73,1.76,4.25l3.12-1.81c1.86,1.66,2.12,4.02,2.38,6.39l.2,1.81,1.24-1.86c.18.19,1.05.7,1.34.54l2.73-1.45c2.03,2.7,2.12,5.48,1.31,8.83l2.8-1c.46,1.09.64,2.52.27,3.63l-1.74,5.17,3.55-1.37c.69,3.03-.41,5.43-1.99,7.63l.43,1.31-3.2,3.65,2.63-.65c2.51-.62-.08,4.2-3.65,6.61l.72,1.12c-2.28,2.65-4.87,4.75-7.99,6.61M149.55,56.03c1.35-4.29,1.73-8.45,1.16-12.91-.96,2.18-.73,4.44-1.23,6.71-1.36,6.24-3.32,12.14-5.34,18.19l-3.94,11.82c-1.56-1.89-4.12-8.2-4.17-9.78l-.13-4.25c1.12-11.29,2.07-23.47-2.02-34.43-.36,1.76-.1,3.36.19,5.12.68,4.06,1.13,8.03.95,12.19l-.64,14.93c-.07,1.66.03,3.15-.54,4.94l-7.08-10.32c-1.76-2.57-2.01-6.04-2.63-9.03l-1.82-8.76c-.97-4.68-2.67-9.06-4.74-13.51.14,3.16,1.06,5.85,1.72,8.73l2.46,10.74.94,4.74c.2,1.03.72,1.87.28,3.08l-7.37-7.43c-.89-.89-2.03-2.03-2.51-3.17l-1.91-4.5c-1.69-3.97-3.2-7.81-5.55-11.4l-3.3-5.03c-.06.71.08,1.56.39,2.13,3.01,5.53,5.74,11,7.72,17.11l-11.87-9.07c-3.25-4.16-4.95-9.93-9.36-12.87,2.14,3.8,4.26,6.79,5.91,10.61-2.09-1.05-3.71-2.22-5.68-3.37-6.22-3.65-12.66-6.88-19.49-8.91,8.21,4.53,16.25,8.24,23.95,13.64-4.16-.04-7.51-1.59-11.23-2.19-2-.32-3.85-.97-5.98-.48l16.83,3.9c2.22.51,4.36,1.44,6.13,2.84l10.58,8.42-2.97-.79c-5.47-1.84-10.84-3.73-16.65-4.33-2.78-.29-5.71-1.02-8.38.42,6.84.73,13.11,1.36,19.39,3.28,3.89,1.18,7.51,2.26,11.14,4.08l9.26,9.06.22.87c.04.18-.67.09-.85.05-5.55-2.44-11.06-4.4-16.92-6.05-4.01-.94-7.91-1.43-12.03-1.46-1.38,0-2.7.21-3.87.94,10.12.09,19.72,2.68,28.98,6.01,2.44.88,5.15,1.64,7.05,3.46,3.14,3,5.5,6.48,7.79,10.38-2.08-.37-3.44-1.65-5.18-2.42l-6.63-2.95c-5.33-2.38-15.89-4.62-21.78-3.73l12.17,2.19c8.19,1.47,15.72,4.99,22.78,9.19,1.53,2.46,2.82,4.67,3.71,7.68-6.34-3.8-12.6-6.58-19.63-8-1.77-.36-3.64-.76-5.21.26,9.12.55,19.21,3.68,25.61,9.61,1.87,1.73,2.08,5.34,3.71,7.35.17-1.54.09-2.57-.22-3.86l-.79-3.3c.63-.71.73-1.27,1.02-2.21l7.57-24.14Z"/>
    <path d="M206.24,127.31l-1.11.85-3.71-3.38-.19,4.65c-.1,2.39-5.39-.41-6.91-4.11-.51.84-.9,1.4-1.49,1.95l-4.94-4.2c-.63,2.6,1.24,5.73.22,6.21-1.12.53-6.41-2.39-7.85-5.42l-1.22,2.32c-2.07-.92-3.1-2.69-4.51-4.29l-2.01-2.27-.33,5.97c-3.45-1-5.44-3.33-7.24-6.17l-1.39,2.29c-1.94-1.24-2.79-2.97-4.17-4.57l-2.19-2.54-1.15,4.13c-2.43-1.12-4.07-2.98-4.82-5.56l-1.4.42-1.74-4.26c-.44.66-1.34,1.55-1.81,1.3l-1.72-.89c-.8-1.01-.78-2.94-.57-4.41l-2.19,1.04c-.89-1.56-.03-3.06.46-4.36l-.89-.69c-.85-.66,2.14-4.27,7.04-4.27h4.65s-1.92-1.15-1.92-1.15c1.3-2.48,2.97-4.67,4.39-3.33,2.29-3.66,1.71-8.73,5.38-11.9.56-.49,1.1-.86,1.57-1.51,1.6-2.24,4.89-4.51,5.37-3.75.14.23.19.7.17,1.02l-.1,1.6,2.41-2.21c2.25-2.07,4.93-3.89,8.02-4.31,1.24,1.23-.83,2.74.28,3.39,2.87-2.62,6.58-4.35,10.44-3.96.76,1.74-2.47,2.87-.38,2.92,3.48-1.77,7.15-2.45,11.01-2l2.57,1.18-2.39,2.47,4.04-.41c.66-.07,1.71.15,2.44.28,4.1.73,7.92,2.37,6.2,3.23l-3.4,1.7c2.81.48,4.88,1.12,7.25,2.27,3.09,1.5,7.32,3.58,4.38,4.67l-4.68,1.74,6.12,1.39c.29.07.96.88.77,1.11l-.85,1.04c2.57.68,4.98,1.85,5.73,4.44l-3.87.84,3.39,2.35-.16,1.2c2.6,1.5,5.12,5.11,4.14,5.41-.24.07-.59.1-1.01.15l-4.09.41,4.76,4.87c1.3,1.32,2.28,2.91,2.76,4.88l-4.75.19c2.83,2.4,6.97,5.89,6.24,8.99l-3.61.08c1.53,1.42,3.07,2.94,4.02,4.55.17.29.29,1.39-.01,1.44l-1.63.26c2.19,2.84,2.8,6.52,1.43,9.96l-.7.48c-.15.1-.48-.35-.59-.5l-2.08-2.8-3.46-3.73-.77,1.07c-.76,1.06-3.18-3.1-4.39-4.93l-1.17-1.79c-.41,1.64-.66,2.59-1.43,4-2.53-1.31-3.98-2.9-5.88-4.66l-1.83-1.7-.82,3.8c-2.7-.79-4.31-2.41-6.11-4.49M192.83,103.97c4.45,1.48,7.82,3.72,11.45,5.87,1.71,1.01,3.4,2.16,4.38,3.89l3.95,6.96,3.07,6c-.55-4.6-3.04-7.96-4.7-12.38,4.86,3.37,8.66,7.09,12.69,10.8l7.92,8.68c-1.67-3.38-4.23-5.91-6.51-8.82-2.74-3.48-5.86-6.29-9.32-9.31.95-.41,1.52.27,2.25.53l9.64,3.45c-2.92-2.04-6.1-3.31-9.48-4.45-3.3-1.12-6.04-2.76-8.92-4.66l-6.3-4.15c8.43-.37,16.31,1.16,23.72,4.35-1.46-1.62-3.13-2.37-4.97-3.08-9.96-3.83-19.47-2.18-21.92-3.18l-7.81-3.21-5.08-2.11c11.2-2.64,23.97-3.16,35.01-1.17v-.55c-10.52-2.93-21.53-2.59-32.07-.41-1.83.38-4.18,1.36-5.99.99l-9.4-1.9,6.9-3.63c5.85-3.08,11.93-5.2,18.25-7.16,3.73-1.16,7.25-1.62,11.23-2.22-5.47-.66-10.59.62-15.72,2.2-4.83,1.49-9.33,3.22-13.81,5.55-3.15,1.63-6.1,3.78-9.66,4.45-2.19.41-4.69-.27-7.15-.33l3.82-2.73,6.33-4.96c5.97-4.67,12.69-7.71,19.45-11.3-6.84,1.66-12.6,5.31-18.3,9.06l-6.11,4.56c-3.74,2.79-6.21,5.67-11.54,5.35,2.22-2.2,4.07-4.23,5.83-6.66l4.26-5.85,2.86-3.47c-.73.18-1.3.54-1.63.97l-6.23,8.21c-1.88,2.48-3.71,5.14-6.4,6.73l-2.21,1.3c2.41.43,3.57,1.62,3.44,3.8l-.4,6.68c-.16,2.72.13,5.33,1.23,7.66l.02-7.54c0-2.76,1.22-6.09-1.29-10.1l3.61-.12c5.65-.19,6.88,5.2,8.16,10l2.2,8.26c.45,1.69,1.11,3.21,2.14,4.57l-3.26-14.44c-.69-3.05-2.36-5.37-4.5-7.74,1.93-.31,3.62.14,5.38.3,2.59.24,4.87,1.12,6.27,3.39l4.16,6.72,5.33,11.87c.57,1.28,1.18,2.33,2.17,3.38l-1.53-4.84c-1.44-4.53-3.39-8.81-5.85-12.89l-4.73-6.39c4.6.95,8.82,2.11,12.77,4.2,3.16,1.68,8.93,12.85,11.01,17.43.75,1.65,1.32,3.22,2.42,4.73-.87-5.46-3.34-10.02-6.05-14.64l-4.47-6.52ZM148.77,106.51l4.18-7.95c-2.37,2-3.9,4.84-4.18,7.95"/>
    <path d="M188.54,258.44c.91-2.87,4.27.03,6.36,2.87l-.24,1.24.71-.75c.17-.19.61-.07,1.26.04.93-2.4.58-4.6,1.12-5.67.38-.76,2.9,1.9,3.06,4.27l.34,5.02-1.14,2.81c1.6,1.86,3.85,4.14,5.42,3.22.9-.53.39-2.11-1.02-3.65-.93-1.02-1.24-2.14-.86-3.34l2.08,2.01c-.68-2.48-1.65-4.4-1.74-6.82-.04-1.14-.2-1.93-.67-3.1l-1.54,1.19-4.81-7.26-28.15-41.65-7.14-9.32c-2.26-1.91-4.47-3.57-7.29-4.4-1.59-1.81-3.56-2.68-5.95-3.02-1.69-.54-3.87-1.01-4.6-2.85-.18-.45.91-1.07,1.62-1.32-1.16-.66-2.44-.98-4.08-1.18l-.4-1.75c2.69-1.47-.37-2.36.53-4.47l-1.37-1.56c.72-.57,1.42-1.21,1.81-1.82l-2.45-2.41c.39-.29,1.18-.35,1.61-.16l2.81,1.18.49-1.04c.1-.22.68.25,1.07.54l.67-.79,2.15,1.65c-1.44-3.83-4.64-4.71-7.88-6.54-.67-.38-1.4-1.68-1.68-2.45l-2.33-6.48c-.26-.71-.25-1.47.4-2.05,4.59,2.36,15.3,7.4,14.93,11.81l-.67,8.14-2.7-2.27,2.58,3.93c.77,1.18,1.46,2.17,2.63,3.09l1.21-4.37c1.88,1.89,1.18,5.78,2.82,8.25-.41-5.36-2.12-10.23-3.72-15.39l-9.84-31.65c-.85-2.75-1.88-5.22-3.31-7.63-.4-.67-.5-1.11-.2-1.86-4.82-2.62-7.97-6.63-7.46-12.31,1.21.98,1.58,2.06,3.1,2.14-1.69-2.09-3-4.24-4.29-6.67-1.76-3.29-3.27-6.6-3.39-10.43-.07-2.39.7-4.59,1.49-6.83l1.85-5.23c.09-.26.57-.72.8-.67,1.09.24,1.25,2.19,3.11,3.79,2.08,1.6,3.46,3.7,4.68,6l-.07,8.87c-1.58,0-2.05-2.2-3.74-2.31,2.63,2.87,6.76,8.45,3.96,10.21l.05,1.85c.01.46.78,1.18,1.23,1.13.6-.06,1.24-.74,1.24-1.34l.05-5.43c.96-.69,1.38-1.43,1.43-2.58,1.19,1.34,2.03,2.26,3.72,3.15-.12.4-.67.82-1.34,1.19-2.15,1.18-4.6,4.95-2.34,6.57l2.25-.2,3.08-5c.53.31,1.01.58,1.08.84.09.32-.08,1.05-.22,1.36l-.73,1.67,2.28-1.95c1.99,1.17-.09,2.67.91,5.7.69,2.09-.47,3.67-1.04,5.53-1.71,5.54,2.81,19.98,4.95,27.09l6.96,23.13c.93,3.09,2.15,5.85,3.97,8.47,2.8,4.04,3.17,8.78,6.81,14.4l19.68,30.43,20.05,29.74c1.83,2.71,2.47,6.06,1.36,8.99-1.97,5.18-3.88,6.95-9.44,7.81-6.18-.91-11.56-3.74-15.8-8.14l-.09-.8c-.08-.77,3.3.79,5.63-.4l-4.36-7.1-2.04-2.65c-.23,1.43.41,2.29,1.06,3.29l1.82,2.84c-.7.14-1.13.01-1.71-.23-2.61-1.11-5.14-2.04-7.4-3.74-1.69-1.28-2.5-3.44-3.86-4.94l-4.96-5.45c-1.92-2.11-2.44-4.73-3.12-7.53l-2.07-4.85c-.16-.38-.16-.92-.04-1.19.12-.27.99-.38,1.3-.33l5.91,1.03c3.81.66,6.91,2.03,9.9,4.35,3.72,2.89,6.84,6.56,8.21,11.12-.37,1.31-.53,2.36-.59,3.91.33.05-.4-.05-.56-.08-1.81-1.47-3.68-3.53-6.08-4.01l-8.09-1.61c-.52-.66-.66-.22-.35.19,2.96,2.24,5.99,3.95,9.4,4.96M134.07,107.95l1.76.54c-.37-1.52-.72-2.52-1.34-3.73l-1.69-3.3c-1.29,2.45-.09,7.32,2.04,8.04l-.77-1.56ZM148.88,131.86c-.73-.33-1.38-.59-1.77-.57-.39.02-1.11.99-.86,1.29.59.67,2.29.28,2.63-.72M149.44,144.95l.47-.47-.68-3.85c-.05-.25-.88-.81-.97-.59-.07.17-.33.85-.27,1.02l1.45,3.89ZM145.72,167.9c-1.56-3.05-3.48-2.84-3.14-2.17.51,1.01,1.7,1.91,3.14,2.17M150.81,185.35c.35.02,1.28-.49,1.27-.83-.04-1.05-2.22-2.85-4.4-1.94l-2.68,1.11,1.66,1.41,4.14.25ZM163.72,193.03c.32-.03,1.1-.81.94-1.08l-.63-1.04c-.52-.85-1.59-1.95-2.67-1.48-.52.22-1.14,1.32-1.28,1.91.8,1.09,2.19,1.85,3.65,1.7M169.13,200.04c.59-.25.71-1.3.47-1.64-.19-.28-.85-.79-1.14-.61-.43.27-.9,1.04-.77,1.4.14.36,1.07,1.01,1.43.85M184.93,249.08c-2.46-3.99-5.63-5.86-10.49-6.75l3.33,3.4c2.17,1.41,4.06,3.22,7.16,3.35M209.88,261.72c.06-.85-1.18-2.25-1.82-1.87-1.13.68-.55,2.48.38,3.04.46-.1,1.32-.75,1.44-1.17"/>
    <path d="M149.71,91.79c-1.77.1-3.79,1.34-4.06,3.26l-.18,1.26c-.05.33-1.09.36-1.39.16.38-4.38,4.16-6.81,8.54-8.2.46,1.27.17,2.13-.26,3.14l-1.49,3.57c-.18.42-.85,1.15-1.28,1.3-.43.16-1.59-.02-1.87-.19,1.22-1.5,2.17-2.19,1.97-4.3"/>
    <path class="cls-2" d="M261.26,338.28c-2.45-.89-2.77-3.28-4.43-4.7l-13.76-19.39c-5.66-7.97-11.44-15.57-16.52-24.03,6.76,7.81,12.27,16.19,18.31,24.41l4.54,6.18c4.2,5.72,8.35,11.38,11.86,17.53"/>
    <path class="cls-2" d="M99.69,213.25c-4.82,4.74-7.81,10.27-9.96,16.61-.92-4.21,3.15-10.09,6.4-14.39,1.23-1.62,3.19-3.25,3.94-5.16l3.33-11.05c-6.58,3.26-11.89,7.96-16.92,12.95-2.76,2.74-4.91,5.57-6.56,9.08-.09-1.58.63-2.86,1.41-4.16,4.4-7.35,12.09-13.24,19.34-17.9l3.65-2.34,2.72-4.75c.75-1.31,1.59-2.16,2.05-3.75l-6.59,2.45c-5.51,2.05-10.39,5.08-15.29,8.33l-9.19,6.72c8.31-8.75,18.83-14.79,30.22-18.42.7-.22,1.88-.58,2.34-1.02l4.83-4.58-3.13.32c-5.89.61-11.72,1.48-17.05,4.07l-9.81,4.78c4.3-3.12,9.13-5.3,14.15-7.08,4.42-1.57,8.89-2.18,13.49-2.81.91-.13,2.06-.1,2.87-.04l3.43-1.79c.98-.51,2.3-.64,3.22-.67l-1.42,2.64,4.82,3.66c2.85,2.17,5.34,4.93,6.74,8.13l-11.63-11.17c.03-.52-.55-1.73-.89-1.4l-5.88,5.73c-.9,2.22.59,4.63,2.15,6.16,3.75,3.7,5.94,8.24,7.49,13.18.28.87.48,1.53.5,2.57-1.13-1.36-1.52-2.71-2.26-4.25-2.08-4.3-4.69-8.28-7.55-12.12-.9-1.21-1.29-2.2-1.8-3.87-2.27,2.65-3.87,5.27-5.43,8.11-.73,1.32-1.5,2.87-.63,4.43l3.88,6.95c2.41,4.32,3.97,8.85,4.58,13.9l-2.67-6.19c-1.37-3.17-2.86-6.12-4.41-9.2l-2.74-5.46c-2.34,4.43-2.97,8.93-3.54,13.65-1.15,9.46.17,18.74,3.18,27.74-2.25-3.05-3.31-6.42-3.99-9.94l-1.34-6.89-.17-3.61.1-8.2Z"/>
    <path class="cls-2" d="M105.33,163.94l-8.22,2.29c1-1.07,2.24-1.49,3.55-1.86,3.42-.97,6.83-1.66,10.45-1.6,1.89.03,3.86-.77,5.74.36-4.07.01-7.68.1-11.51.81"/>
    <path class="cls-2" d="M126.65,164.12l-5.55-.61-4.49-.37c1.38-1.05,2.65-.14,3.91-.08,2.15.11,4.15-.05,6.13,1.06"/>
    <path class="cls-2" d="M69.92,133.66c-1.24.58-2.37.55-3.66.48l-3.06-.15v-.57s6.73.24,6.73.24Z"/>
    <path class="cls-2" d="M108.57,228.2c-1.54-1.88-2.35-4.12-3.03-6.37,1.47,1.95,2.44,4.03,3.03,6.37"/>
    <path class="cls-2" d="M149.55,56.03l-7.57,24.14c-.29.94-.39,1.5-1.02,2.21l.79,3.3c.31,1.29.38,2.32.22,3.86-1.64-2.01-1.84-5.62-3.71-7.35-6.41-5.92-16.49-9.06-25.61-9.61,1.57-1.02,3.45-.62,5.21-.26,7.02,1.42,13.29,4.2,19.63,8-.89-3-2.18-5.22-3.71-7.68-7.07-4.21-14.59-7.72-22.78-9.19l-12.17-2.19c5.89-.9,16.45,1.35,21.78,3.73l6.63,2.95c1.74.78,3.1,2.05,5.18,2.42-2.28-3.9-4.65-7.39-7.79-10.38-1.91-1.82-4.61-2.58-7.05-3.46-9.26-3.33-18.86-5.92-28.98-6.01,1.17-.73,2.48-.94,3.87-.94,4.12.02,8.02.51,12.03,1.46,5.85,1.65,11.36,3.62,16.92,6.05.17.05.89.13.85-.05l-.22-.87-9.26-9.06c-3.64-1.82-7.26-2.9-11.14-4.08-6.28-1.91-12.56-2.54-19.39-3.28,2.67-1.45,5.6-.72,8.38-.42,5.81.61,11.18,2.49,16.65,4.33l2.97.79-10.58-8.42c-1.76-1.4-3.91-2.33-6.13-2.84l-16.83-3.9c2.13-.49,3.98.16,5.98.48,3.72.6,7.07,2.15,11.23,2.19-7.7-5.4-15.73-9.11-23.95-13.64,6.83,2.03,13.27,5.26,19.49,8.91,1.96,1.15,3.58,2.32,5.68,3.37-1.65-3.82-3.78-6.81-5.91-10.61,4.41,2.94,6.11,8.72,9.36,12.87l11.87,9.07c-1.99-6.11-4.72-11.58-7.72-17.11-.31-.58-.45-1.43-.39-2.13l3.3,5.03c2.36,3.6,3.87,7.44,5.55,11.4l1.91,4.5c.48,1.13,1.62,2.27,2.51,3.17l7.37,7.43c.44-1.21-.07-2.05-.28-3.08l-.94-4.74-2.46-10.74c-.66-2.88-1.57-5.57-1.72-8.73,2.06,4.46,3.76,8.83,4.74,13.51l1.82,8.76c.62,2.98.87,6.46,2.63,9.03l7.08,10.32c.57-1.79.47-3.28.54-4.94l.64-14.93c.18-4.16-.27-8.13-.95-12.19-.29-1.76-.55-3.35-.19-5.12,4.09,10.97,3.14,23.14,2.02,34.43l.13,4.25c.05,1.58,2.61,7.89,4.17,9.78l3.94-11.82c2.02-6.05,3.98-11.95,5.34-18.19.5-2.27.26-4.53,1.23-6.71.57,4.46.19,8.62-1.16,12.91"/>
    <path class="cls-2" d="M192.83,103.97l4.47,6.52c2.72,4.62,5.18,9.18,6.05,14.64-1.1-1.52-1.67-3.08-2.42-4.73-2.07-4.58-7.85-15.75-11.01-17.43-3.95-2.1-8.17-3.25-12.77-4.2l4.73,6.39c2.46,4.08,4.41,8.35,5.85,12.89l1.54,4.84c-.99-1.05-1.6-2.1-2.17-3.38l-5.33-11.87-4.16-6.72c-1.41-2.27-3.68-3.15-6.27-3.39-1.76-.16-3.45-.61-5.38-.3,2.13,2.37,3.81,4.69,4.5,7.74l3.26,14.44c-1.03-1.36-1.69-2.88-2.14-4.57l-2.2-8.26c-1.28-4.8-2.51-10.2-8.16-10l-3.61.12c2.52,4.02,1.3,7.35,1.29,10.1l-.02,7.54c-1.1-2.33-1.4-4.94-1.23-7.66l.4-6.68c.13-2.18-1.04-3.38-3.44-3.8l2.21-1.3c2.7-1.59,4.52-4.25,6.4-6.73l6.23-8.21c.33-.44.89-.79,1.63-.97l-2.86,3.47-4.26,5.85c-1.77,2.43-3.61,4.45-5.83,6.66,5.33.32,7.8-2.56,11.54-5.35l6.11-4.56c5.69-3.74,11.46-7.39,18.3-9.05-6.76,3.59-13.48,6.63-19.45,11.3l-6.33,4.96-3.82,2.73c2.46.06,4.96.75,7.15.33,3.55-.67,6.51-2.82,9.66-4.45,4.48-2.32,8.98-4.06,13.81-5.54,5.13-1.58,10.25-2.86,15.72-2.2-3.98.6-7.5,1.06-11.23,2.22-6.32,1.96-12.4,4.07-18.25,7.16l-6.9,3.63,9.4,1.9c1.81.37,4.16-.62,5.99-.99,10.54-2.18,21.55-2.52,32.08.41v.55c-11.05-1.99-23.82-1.47-35.02,1.17l5.08,2.11,7.81,3.21c2.45,1.01,11.97-.65,21.92,3.18,1.85.71,3.51,1.46,4.97,3.08-7.41-3.2-15.29-4.73-23.72-4.36l6.3,4.15c2.88,1.9,5.62,3.54,8.92,4.66,3.38,1.14,6.56,2.41,9.48,4.45l-9.64-3.45c-.73-.26-1.3-.94-2.25-.53,3.46,3.02,6.58,5.83,9.32,9.31,2.29,2.91,4.84,5.44,6.51,8.82l-7.92-8.68c-4.03-3.71-7.83-7.43-12.69-10.8,1.66,4.42,4.15,7.78,4.7,12.38l-3.07-6-3.95-6.95c-.98-1.73-2.67-2.88-4.38-3.89-3.64-2.15-7-4.39-11.45-5.87"/>
    <path class="cls-2" d="M148.77,106.51c.27-3.11,1.81-5.95,4.18-7.95l-4.18,7.95Z"/>
    <path class="cls-2" d="M184.93,249.08c-3.1-.13-4.99-1.94-7.16-3.35l-3.33-3.41c4.86.89,8.02,2.76,10.49,6.75"/>
    <path class="cls-2" d="M150.81,185.35l-4.14-.25-1.66-1.41,2.67-1.11c2.18-.91,4.36.89,4.4,1.94.01.34-.92.85-1.27.83"/>
    <path class="cls-2" d="M134.07,107.95l.77,1.56c-2.13-.73-3.32-5.59-2.04-8.04l1.69,3.3c.62,1.21.97,2.21,1.34,3.73l-1.76-.54Z"/>
    <path class="cls-2" d="M163.72,193.03c-1.46.15-2.85-.61-3.65-1.7.14-.58.76-1.68,1.28-1.91,1.08-.47,2.16.63,2.67,1.48l.63,1.04c.17.27-.61,1.05-.94,1.08"/>
    <path class="cls-2" d="M209.88,261.72c-.12.42-.98,1.08-1.44,1.17-.93-.56-1.51-2.36-.38-3.04.64-.38,1.88,1.02,1.82,1.87"/>
    <path class="cls-2" d="M149.44,144.95l-1.45-3.89c-.06-.17.2-.85.27-1.02.09-.22.92.33.97.59l.68,3.85-.47.47Z"/>
    <path class="cls-2" d="M169.13,200.04c-.36.15-1.29-.49-1.43-.85-.14-.36.33-1.13.77-1.4.29-.18.94.33,1.14.61.24.35.12,1.39-.47,1.64"/>
    <path class="cls-2" d="M148.88,131.86c-.34,1-2.04,1.4-2.63.72-.24-.31.48-1.28.86-1.29.39-.02,1.04.24,1.77.57"/>
    <path class="cls-2" d="M145.72,167.9c-1.44-.27-2.63-1.16-3.14-2.17-.34-.67,1.58-.87,3.14,2.17"/>
  </g>
</svg>