<?xml version="1.0" encoding="UTF-8"?>
<svg id="Calque_2" data-name="Calque 2" xmlns="http://www.w3.org/2000/svg" viewBox="0 0 223.22 223.22">
  <defs>
    <style>
      .cls-1 {
        fill: #010101;
      }

      .cls-2 {
        fill: #fff;
      }
    </style>
  </defs>
  <g id="Calque_1-2" data-name="Calque 1">
    <circle class="cls-1" cx="111.61" cy="111.61" r="111.61"/>
    <g>
      <path class="cls-2" d="M138.55,115.78h-16.57v-16.63h16.57v16.63Z"/>
      <path class="cls-2" d="M157.82,115.78h-16.57v-16.63h16.57v16.63Z"/>
      <path class="cls-2" d="M84.21,99.04h16.12v16.7h-16.12v-16.7Z"/>
      <path class="cls-2" d="M119.29,99.15v16.6h-16.26v-16.6h16.26Z"/>
      <path class="cls-2" d="M138.55,135.87h-16.57v-16.63h16.57v16.63Z"/>
      <path class="cls-2" d="M157.82,135.87h-16.57v-16.63h16.57v16.63Z"/>
      <path class="cls-2" d="M65.4,119.13h16.12v16.7h-16.12v-16.7Z"/>
      <path class="cls-2" d="M84.21,119.13h16.12v16.7h-16.12v-16.7Z"/>
      <path class="cls-2" d="M119.29,119.24v16.6h-16.26v-16.6h16.26Z"/>
      <path class="cls-2" d="M138.55,155.96h-16.57v-16.63h16.57v16.63Z"/>
      <path class="cls-2" d="M65.4,139.22h16.12v16.7h-16.12v-16.7Z"/>
      <path class="cls-2" d="M84.21,139.22h16.12v16.7h-16.12v-16.7Z"/>
      <path class="cls-2" d="M119.29,139.33v16.6h-16.26v-16.6h16.26Z"/>
      <path class="cls-2" d="M147.14,56.54v-7.88c0-1.72-1.39-3.11-3.11-3.11h-5.57c-1.72,0-3.11,1.39-3.11,3.11v7.88h-47.31v-7.88c0-1.72-1.39-3.11-3.11-3.11h-5.57c-1.72,0-3.11,1.39-3.11,3.11v7.88h-21.33c-1.35,0-2.44,1.09-2.44,2.44v107.5c0,1.35,1.09,2.44,2.44,2.44h113.39c1.35,0,2.44-1.09,2.44-2.44V58.98c0-1.35-1.09-2.44-2.44-2.44h-21.16Zm13.88,102.7H62.2v-63.68h98.82v63.68Z"/>
    </g>
  </g>
</svg>