<?xml version="1.0" encoding="UTF-8"?>
<svg id="Calque_2" data-name="Calque 2" xmlns="http://www.w3.org/2000/svg" viewBox="0 0 223.22 223.22">
  <defs>
    <style>
      .cls-1 {
        fill: #010101;
      }

      .cls-2 {
        fill: #fff;
      }
    </style>
  </defs>
  <g id="Calque_1-2" data-name="Calque 1">
    <circle class="cls-1" cx="111.61" cy="111.61" r="111.61"/>
    <g>
      <g>
        <path class="cls-2" d="M137.36,44.12c1.41,0,2.82-.06,4.22,.04,.4,.03,.78,.5,1.17,.76-.39,.27-.78,.76-1.18,.77-2.91,.06-5.82,.06-8.73,0-.36,0-.72-.46-1.07-.7,.36-.29,.71-.79,1.09-.82,1.5-.1,3-.04,4.51-.04h0Z"/>
        <path class="cls-2" d="M137.35,54.65c1.41,0,2.83-.06,4.24,.04,.4,.03,.76,.52,1.14,.8-.36,.25-.71,.71-1.08,.72-2.92,.07-5.85,.08-8.77,.01-.38,0-.75-.54-1.12-.83,.4-.25,.79-.69,1.2-.72,1.46-.09,2.92-.03,4.38-.03Z"/>
        <path class="cls-2" d="M137.22,77.31c-1.41,0-2.83,.06-4.24-.04-.42-.03-.81-.48-1.22-.74,.42-.28,.84-.78,1.27-.79,2.82-.07,5.65-.07,8.48,0,.41,0,.82,.47,1.23,.72-.43,.29-.84,.79-1.28,.83-1.4,.11-2.82,.04-4.24,.04h0Z"/>
        <path class="cls-2" d="M137.38,65.16c1.41,0,2.83-.06,4.23,.04,.39,.03,.75,.52,1.12,.81-.36,.25-.71,.71-1.08,.72-2.92,.06-5.84,.07-8.76,0-.38,0-.75-.53-1.12-.82,.41-.25,.81-.68,1.23-.71,1.46-.09,2.92-.03,4.38-.03h0Z"/>
        <path class="cls-2" d="M137.38,117.78c1.41,0,2.83-.06,4.23,.04,.39,.03,.75,.52,1.13,.8-.36,.25-.72,.72-1.08,.73-2.92,.05-5.84,.05-8.76-.03-.38-.01-.75-.53-1.12-.81,.41-.24,.8-.67,1.22-.7,1.46-.09,2.92-.03,4.38-.03Z"/>
        <path class="cls-2" d="M137.26,87.78c-1.45,0-2.91,.06-4.36-.04-.4-.03-.77-.5-1.15-.77,.39-.25,.78-.72,1.18-.73,2.86-.07,5.72-.07,8.58,0,.41,0,.82,.46,1.23,.7-.42,.28-.82,.77-1.26,.8-1.4,.1-2.81,.04-4.22,.04Z"/>
        <path class="cls-2" d="M137.27,98.31c-1.41,0-2.83,.07-4.23-.04-.45-.03-.86-.52-1.29-.8,.41-.25,.81-.7,1.22-.71,2.82-.06,5.64-.07,8.46,0,.44,.01,.86,.52,1.29,.79-.41,.25-.8,.68-1.23,.7-1.4,.09-2.82,.03-4.23,.03v.02Z"/>
        <path class="cls-2" d="M137.2,129.82c-1.46,0-2.92,.05-4.38-.03-.37-.02-.71-.46-1.06-.71,.34-.26,.67-.75,1.01-.76,2.97-.06,5.94-.07,8.91,0,.36,0,.71,.47,1.06,.73-.34,.26-.66,.74-1.01,.76-1.5,.08-3.02,.04-4.53,.04h0Z"/>
        <path class="cls-2" d="M137.17,108.82c-1.41,0-2.83,.06-4.23-.04-.41-.03-.79-.49-1.19-.75,.39-.26,.78-.74,1.17-.75,2.87-.06,5.75-.06,8.62,0,.4,0,.79,.48,1.19,.74-.39,.27-.77,.73-1.18,.76-1.45,.09-2.92,.04-4.38,.03Z"/>
        <path class="cls-2" d="M137.36,138.8c1.41,0,2.83-.06,4.23,.04,.4,.03,.76,.51,1.14,.79-.36,.24-.72,.69-1.08,.7-2.92,.06-5.84,.07-8.76,0-.38,0-.75-.52-1.13-.79,.41-.24,.8-.67,1.23-.7,1.46-.09,2.92-.03,4.38-.03h0Z"/>
        <path class="cls-2" d="M134.88,49.38c.58,0,1.18-.1,1.73,.03,.38,.09,.68,.5,1.01,.77-.34,.27-.66,.75-1.02,.78-1.3,.09-2.61,.1-3.91,0-.33-.03-.62-.55-.93-.85,.31-.24,.6-.63,.95-.68,.71-.11,1.45-.03,2.17-.03h0Z"/>
        <path class="cls-2" d="M134.79,38.88c.68,0,1.38-.09,2.03,.04,.31,.06,.55,.52,.82,.8-.26,.24-.51,.67-.79,.68-1.4,.08-2.82,.1-4.22,.02-.31-.02-.59-.48-.89-.74,.33-.27,.64-.71,1.01-.78,.65-.13,1.35-.04,2.03-.04h0Z"/>
        <path class="cls-2" d="M134.58,72.01c-.68,0-1.37,.09-2.02-.04-.31-.06-.54-.53-.81-.82,.27-.24,.53-.66,.81-.68,1.45-.06,2.9-.06,4.35,.02,.26,.01,.68,.48,.68,.74,0,.25-.41,.69-.69,.73-.76,.1-1.54,.03-2.31,.03v.02Z"/>
        <path class="cls-2" d="M134.76,59.91c.63,0,1.28-.1,1.88,.04,.37,.08,.66,.51,.98,.79-.3,.25-.58,.71-.89,.73-1.35,.08-2.71,.08-4.06,0-.32-.02-.61-.47-.91-.72,.32-.28,.61-.72,.97-.79,.65-.13,1.35-.04,2.03-.04Z"/>
        <path class="cls-2" d="M134.82,80.96c.63,0,1.28-.08,1.89,.03,.35,.06,.64,.45,.95,.68-.27,.28-.53,.79-.82,.8-1.45,.08-2.91,.07-4.36,0-.25-.01-.67-.48-.67-.74,0-.25,.42-.69,.69-.72,.76-.1,1.55-.03,2.32-.03,0,0,0-.01,0-.02Z"/>
        <path class="cls-2" d="M134.69,112.51c.68,0,1.37-.08,2.03,.03,.34,.06,.62,.46,.92,.71-.28,.27-.54,.77-.83,.79-1.45,.07-2.9,.04-4.34-.04-.25-.02-.68-.49-.67-.73,.02-.26,.44-.66,.72-.7,.71-.1,1.45-.03,2.17-.03,0,0,0-.01,0-.02Z"/>
        <path class="cls-2" d="M134.69,93.05c-.68,0-1.37,.08-2.03-.03-.33-.06-.59-.48-.89-.74,.28-.27,.54-.75,.83-.77,1.4-.08,2.81-.08,4.2,0,.29,.02,.54,.51,.82,.79-.26,.24-.49,.65-.77,.69-.71,.1-1.44,.03-2.17,.03,0,0,0,.02,0,.03Z"/>
        <path class="cls-2" d="M134.73,102.01c.72,0,1.46-.07,2.17,.03,.27,.04,.67,.47,.68,.73,.01,.24-.42,.69-.68,.71-1.44,.07-2.9,.09-4.34,.01-.28-.01-.53-.52-.79-.8,.31-.24,.6-.62,.94-.67,.66-.11,1.35-.03,2.02-.03,0,0,0,.02,0,.02Z"/>
        <path class="cls-2" d="M134.73,123.05c.73,0,1.46-.07,2.18,.03,.28,.04,.69,.46,.7,.72,0,.24-.43,.7-.68,.72-1.45,.07-2.91,.08-4.36,0-.28-.02-.54-.52-.81-.79,.31-.23,.6-.62,.94-.67,.66-.11,1.35-.03,2.03-.03,0,0,0,.01,0,.02Z"/>
        <path class="cls-2" d="M134.82,135.06c-.78,0-1.57,.07-2.33-.04-.27-.04-.68-.49-.67-.74,0-.25,.45-.68,.72-.69,1.46-.07,2.92-.07,4.38,0,.25,.01,.67,.49,.66,.74-.01,.26-.43,.66-.72,.7-.66,.1-1.36,.03-2.04,.03,0,0,0,0,0-.01Z"/>
      </g>
      <path class="cls-2" d="M126.72,92.14c0,16.36,.01,32.73-.03,49.09,0,1.2,.37,1.92,1.31,2.66,14.19,11.3,14.2,32.28,.06,42.96-8.88,6.71-20.58,7.46-30.12,1.94-9.43-5.46-14.64-15.95-13.25-26.81,.96-7.46,4.44-13.53,10.43-18.09,.97-.74,1.29-1.49,1.29-2.67-.03-32.58-.04-65.17-.02-97.75,0-10.85,10.62-18.12,20.74-14.25,5.75,2.2,9.58,7.84,9.58,14.27,.02,16.22,0,32.44,0,48.66Zm-4.32,.93c0-8.52,0-17.05,0-25.57,0-8.08,.06-16.17-.03-24.25-.07-6.53-5.78-11.43-12.2-10.61-5.62,.72-9.44,5.28-9.44,11.32,0,32.87,0,65.75,.03,98.62,0,1.38-.39,2.14-1.6,2.87-14.44,8.71-14.87,30.03-.84,39.36,11.36,7.55,25.94,4.38,33.32-7.23,6.9-10.88,3.2-25.6-8.18-32.42-.82-.49-1.08-1.03-1.08-1.97,.03-16.7,.02-33.41,.02-50.11Z"/>
      <path class="cls-2" d="M123.18,149.01c-1.19-.84-.52-.39-1.87-1.17-1.95-.83-1.69-2.81-1.68-4.87,.15-13.78,.08-27.57,.08-41.35,0-12.54,0-25.07,0-37.61,0-1.87,.11-3.75-.03-5.61-.24-3.06-3.97-5.05-8.11-5.04-.09,0-.17,0-.26,0-1.47,.03-2.98,.32-4.4,.9-3.17,1.31-3.59,3.33-3.59,5.51,.02,27.91,0,55.81,.08,83.72,0,1.67,.18,3.51-1.39,4.15l-1.01,.61c-4.32,2.6-7.3,6.47-8.77,11.62-2.81,9.89,2.21,20.14,11.68,24.04,9.29,3.83,20.11,.11,25.05-8.61,5.23-9.24,2.52-20.4-5.8-26.28Z"/>
    </g>
  </g>
</svg>