<?xml version="1.0" encoding="UTF-8"?>
<svg id="Layer_1" data-name="Layer 1" xmlns="http://www.w3.org/2000/svg" viewBox="0 0 800 800">
  <path d="M531.25,150.2c0-172.6-262.5-172.6-262.5,0v326.2c-30.95,32.45-50.02,76.53-50.02,125.02,0,100.1,81.15,181.25,181.25,181.25s181.25-81.15,181.25-181.25c0-48.5-19.05-92.55-50.08-125.08l.08.08.02-326.22ZM400,718.75c-65.58,0-118.75-53.18-118.75-118.75,0-35.13,15.25-66.67,39.5-88.43l.1-.1c.22-.2.32-.5.55-.72,1.48-1.57,2.8-3.32,3.92-5.2l.08-.15c1.08-1.32,2.1-2.83,2.98-4.37l.08-.15c.5-1.38.92-3.05,1.22-4.75l.03-.17c.68-2.02,1.17-4.37,1.4-6.8v-.12l.17-.83V150.2c-.03-.78-.05-1.7-.05-2.63,0-38,30.8-68.8,68.8-68.8s68.8,30.8,68.8,68.8c0,.93-.02,1.85-.05,2.75v-.13,338c0,.3.17.58.17.87.23,2.45.7,4.7,1.4,6.85l-.05-.23c.33,1.98.78,3.73,1.38,5.42l-.08-.23c.95,1.7,1.98,3.18,3.07,4.55l-.05-.05c1.2,2.02,2.52,3.77,4,5.38l-.02-.02c.23.23.3.52.55.72,24.35,21.85,39.6,53.4,39.6,88.53,0,65.57-53.18,118.75-118.75,118.75h0ZM431.25,525.02V150c0-17.25-14-31.25-31.25-31.25s-31.25,14-31.25,31.25h0v375.03c-29.6,12.58-50,41.4-50,75,0,44.88,36.37,81.25,81.25,81.25s81.25-36.37,81.25-81.25c0-33.6-20.4-62.42-49.48-74.8l-.52-.2ZM662.5,43.75c-51.77,0-93.75,41.97-93.75,93.75s41.98,93.75,93.75,93.75,93.75-41.97,93.75-93.75h0c-.05-51.75-42-93.7-93.75-93.75h0ZM662.5,168.75c-17.25,0-31.25-14-31.25-31.25s14-31.25,31.25-31.25,31.25,14,31.25,31.25h0c-.02,17.25-14,31.23-31.25,31.25h0Z"/>
</svg>